<svg width="48" height="48" viewBox="0 0 48 48" fill="none" xmlns="http://www.w3.org/2000/svg">
<mask id="mask0_455_1813" style="mask-type:alpha" maskUnits="userSpaceOnUse" x="0" y="0" width="48" height="48">
<rect width="48" height="48" fill="#4192B5"/>
</mask>
<g mask="url(#mask0_455_1813)">
<path d="M35.2498 41.6L22.3498 28.6C21.5831 28.8667 20.8165 29.0833 20.0498 29.25C19.2831 29.4167 18.4998 29.5 17.6998 29.5C14.4638 29.5 11.7131 28.3722 9.44781 26.1165C7.18247 23.8612 6.0498 21.1223 6.0498 17.9C6.0498 16.8667 6.1858 15.8602 6.4578 14.8805C6.7298 13.9008 7.11047 12.974 7.5998 12.1L14.8498 19.35L19.4498 15.05L11.9998 7.6C12.8635 7.09467 13.7795 6.70167 14.7478 6.421C15.7158 6.14033 16.6998 6 17.6998 6C21.0055 6 23.8151 7.157 26.1288 9.471C28.4428 11.7847 29.5998 14.5943 29.5998 17.9C29.5998 18.7 29.5165 19.4833 29.3498 20.25C29.1831 21.0167 28.9665 21.7833 28.6998 22.55L41.6498 35.45C42.0165 35.8153 42.1998 36.2567 42.1998 36.774C42.1998 37.2913 42.0165 37.7333 41.6498 38.1L37.8498 41.6C37.4931 41.9667 37.0623 42.15 36.5573 42.15C36.0523 42.15 35.6165 41.9667 35.2498 41.6ZM36.6498 38.75L38.6498 36.75L24.9998 23.1C25.5331 22.4 25.9331 21.575 26.1998 20.625C26.4665 19.675 26.5998 18.7667 26.5998 17.9C26.5998 15.4 25.6748 13.2833 23.8248 11.55C21.9748 9.81667 19.8665 8.93333 17.4998 8.9L22.5998 14.1C22.8998 14.4 23.0415 14.7583 23.0248 15.175C23.0081 15.5917 22.8498 15.95 22.5498 16.25L15.8998 22.5C15.5908 22.7667 15.2301 22.9 14.8178 22.9C14.4058 22.9 14.0665 22.7667 13.7998 22.5L8.8998 17.65C8.9998 20.2167 9.91097 22.3333 11.6333 24C13.3556 25.6667 15.3778 26.5 17.6998 26.5C18.5331 26.5 19.4165 26.3667 20.3498 26.1C21.2831 25.8333 22.0998 25.4333 22.7998 24.9L36.6498 38.75Z" fill="#4192B5"/>
</g>
</svg>
