<svg width="18" height="17" viewBox="0 0 18 17" fill="none" xmlns="http://www.w3.org/2000/svg">
<mask id="mask0_260_411" style="mask-type:alpha" maskUnits="userSpaceOnUse" x="0" y="0" width="18" height="17">
<rect x="0.912109" width="16.1765" height="16.1765" fill="#D9D9D9"/>
</mask>
<g mask="url(#mask0_260_411)">
<path d="M13.7686 13.7334C12.4093 13.6323 11.1202 13.2981 9.90139 12.7308C8.68254 12.1635 7.59006 11.3968 6.62397 10.4307C5.65787 9.46465 4.89679 8.37498 4.34073 7.16175C3.78466 5.94851 3.45046 4.66226 3.33812 3.30298C3.31565 3.06708 3.38469 2.86206 3.54521 2.68794C3.70563 2.51382 3.90621 2.42676 4.14695 2.42676H6.43861C6.62958 2.42676 6.79528 2.48573 6.9357 2.60369C7.07612 2.72164 7.1688 2.87049 7.21373 3.05023L7.61815 4.83638C7.64061 4.98242 7.63219 5.12284 7.59287 5.25764C7.55355 5.39244 7.48896 5.50478 7.39909 5.59465L5.76459 7.246C5.98927 7.67288 6.24764 8.08291 6.53972 8.47608C6.83179 8.86926 7.1574 9.23986 7.51654 9.58788C7.85388 9.92511 8.21353 10.237 8.59547 10.5234C8.97742 10.8099 9.38183 11.0654 9.80871 11.2901L11.4769 9.67247C11.5668 9.5826 11.6791 9.51801 11.8139 9.47869C11.9487 9.43937 12.0891 9.43094 12.2352 9.45341L14.0382 9.84097C14.2292 9.89714 14.3808 9.99544 14.4931 10.1359C14.6055 10.2763 14.6617 10.442 14.6617 10.6329V12.9246C14.6617 13.1654 14.5718 13.3659 14.392 13.5263C14.2123 13.6869 14.0045 13.7559 13.7686 13.7334ZM5.20853 6.06646L6.38806 4.88693L6.09891 3.63999H4.58506C4.64123 4.06687 4.71986 4.47971 4.82097 4.8785C4.92207 5.2773 5.05126 5.67329 5.20853 6.06646ZM11.0051 11.863C11.3994 12.023 11.8013 12.1501 12.2107 12.2442C12.6202 12.3383 13.0328 12.4135 13.4484 12.4697V10.9531L12.1846 10.6835L11.0051 11.863Z" fill="#4192B5"/>
</g>
</svg>
