<svg width="15" height="13" viewBox="0 0 15 13" fill="none" xmlns="http://www.w3.org/2000/svg">
<path d="M5.88889 0.688843C5.52847 0.688843 5.18281 0.83202 4.92795 1.08688C4.67309 1.34173 4.52991 1.68739 4.52991 2.04782V2.50081H1.35897C0.998552 2.50081 0.652891 2.64399 0.398034 2.89884C0.143177 3.1537 0 3.49936 0 3.85978L0 5.11366L6.89815 6.95281C7.1273 7.01383 7.36842 7.01383 7.59757 6.95281L14.4957 5.11366V3.85978C14.4957 3.49936 14.3525 3.1537 14.0977 2.89884C13.8428 2.64399 13.4972 2.50081 13.1368 2.50081H9.96581V2.04782C9.96581 1.68739 9.82263 1.34173 9.56778 1.08688C9.31292 0.83202 8.96726 0.688843 8.60684 0.688843H5.88889ZM5.88889 1.59483H8.60684C8.72698 1.59483 8.8422 1.64255 8.92715 1.7275C9.0121 1.81246 9.05983 1.92768 9.05983 2.04782V2.50081H5.4359V2.04782C5.4359 1.92768 5.48362 1.81246 5.56857 1.7275C5.65353 1.64255 5.76875 1.59483 5.88889 1.59483Z" fill="#00AE5A"/>
<path d="M0 11.1078C0 11.4682 0.143177 11.8138 0.398034 12.0687C0.652891 12.3236 0.998552 12.4667 1.35897 12.4667H13.1368C13.4972 12.4667 13.8428 12.3236 14.0977 12.0687C14.3525 11.8138 14.4957 11.4682 14.4957 11.1078V5.98895L7.36473 7.8888C7.28816 7.90925 7.20756 7.90925 7.13099 7.8888L0 5.98895V11.1078Z" fill="#00AE5A"/>
</svg>
