<svg width="12" height="16" viewBox="0 0 12 16" fill="none" xmlns="http://www.w3.org/2000/svg">
<path d="M2.10279 2.23176C2.01076 2.3215 1.95906 2.4432 1.95906 2.5701V3.52704C1.95906 3.65394 2.01076 3.77564 2.10279 3.86537C2.19482 3.9551 2.31965 4.00551 2.4498 4.00551H3.43128C3.56143 4.00551 3.68625 3.9551 3.77829 3.86537C3.87032 3.77564 3.92202 3.65394 3.92202 3.52704V2.5701C3.92202 2.4432 3.87032 2.3215 3.77829 2.23176C3.68625 2.14203 3.56143 2.09162 3.43128 2.09162H2.4498C2.31965 2.09162 2.19482 2.14203 2.10279 2.23176Z" fill="#4192B5"/>
<path d="M5.04723 2.23176C4.9552 2.3215 4.9035 2.4432 4.9035 2.5701V3.52704C4.9035 3.65394 4.9552 3.77564 5.04723 3.86537C5.13927 3.9551 5.26409 4.00551 5.39424 4.00551H6.37572C6.50588 4.00551 6.6307 3.9551 6.72273 3.86537C6.81476 3.77564 6.86646 3.65394 6.86646 3.52704V2.5701C6.86646 2.4432 6.81476 2.3215 6.72273 2.23176C6.6307 2.14203 6.50588 2.09162 6.37572 2.09162H5.39424C5.26409 2.09162 5.13927 2.14203 5.04723 2.23176Z" fill="#4192B5"/>
<path d="M7.99168 2.23176C8.08371 2.14203 8.20853 2.09162 8.33869 2.09162H9.32017C9.45032 2.09162 9.57514 2.14203 9.66718 2.23176C9.75921 2.3215 9.81091 2.4432 9.81091 2.5701V3.52704C9.81091 3.65394 9.75921 3.77564 9.66718 3.86537C9.57514 3.9551 9.45032 4.00551 9.32017 4.00551H8.33869C8.20853 4.00551 8.08371 3.9551 7.99168 3.86537C7.89965 3.77564 7.84795 3.65394 7.84795 3.52704V2.5701C7.84795 2.4432 7.89965 2.3215 7.99168 2.23176Z" fill="#4192B5"/>
<path d="M2.10279 5.1026C2.01076 5.19233 1.95906 5.31403 1.95906 5.44093V6.39787C1.95906 6.52477 2.01076 6.64647 2.10279 6.73621C2.19482 6.82594 2.31965 6.87635 2.4498 6.87635H3.43128C3.56143 6.87635 3.68625 6.82594 3.77829 6.73621C3.87032 6.64647 3.92202 6.52477 3.92202 6.39787V5.44093C3.92202 5.31403 3.87032 5.19233 3.77829 5.1026C3.68625 5.01286 3.56143 4.96246 3.43128 4.96246H2.4498C2.31965 4.96246 2.19482 5.01286 2.10279 5.1026Z" fill="#4192B5"/>
<path d="M5.04723 5.1026C5.13927 5.01286 5.26409 4.96246 5.39424 4.96246H6.37572C6.50588 4.96246 6.6307 5.01286 6.72273 5.1026C6.81476 5.19233 6.86646 5.31403 6.86646 5.44093V6.39787C6.86646 6.52477 6.81476 6.64647 6.72273 6.73621C6.6307 6.82594 6.50588 6.87635 6.37572 6.87635H5.39424C5.26409 6.87635 5.13927 6.82594 5.04723 6.73621C4.9552 6.64647 4.9035 6.52477 4.9035 6.39787V5.44093C4.9035 5.31403 4.9552 5.19233 5.04723 5.1026Z" fill="#4192B5"/>
<path d="M7.99168 5.1026C7.89965 5.19233 7.84795 5.31403 7.84795 5.44093V6.39787C7.84795 6.52477 7.89965 6.64647 7.99168 6.73621C8.08371 6.82594 8.20853 6.87635 8.33869 6.87635H9.32017C9.45032 6.87635 9.57514 6.82594 9.66718 6.73621C9.75921 6.64647 9.81091 6.52477 9.81091 6.39787V5.44093C9.81091 5.31403 9.75921 5.19233 9.66718 5.1026C9.57514 5.01286 9.45032 4.96246 9.32017 4.96246H8.33869C8.20853 4.96246 8.08371 5.01286 7.99168 5.1026Z" fill="#4192B5"/>
<path d="M2.10279 7.97343C2.19482 7.8837 2.31965 7.83329 2.4498 7.83329H3.43128C3.56143 7.83329 3.68625 7.8837 3.77829 7.97343C3.87032 8.06316 3.92202 8.18486 3.92202 8.31176V9.26871C3.92202 9.39561 3.87032 9.51731 3.77829 9.60704C3.68625 9.69677 3.56143 9.74718 3.43128 9.74718H2.4498C2.31965 9.74718 2.19482 9.69677 2.10279 9.60704C2.01076 9.51731 1.95906 9.39561 1.95906 9.26871V8.31176C1.95906 8.18486 2.01076 8.06316 2.10279 7.97343Z" fill="#4192B5"/>
<path d="M5.04723 7.97343C4.9552 8.06316 4.9035 8.18486 4.9035 8.31176V9.26871C4.9035 9.39561 4.9552 9.51731 5.04723 9.60704C5.13927 9.69677 5.26409 9.74718 5.39424 9.74718H6.37572C6.50588 9.74718 6.6307 9.69677 6.72273 9.60704C6.81476 9.51731 6.86646 9.39561 6.86646 9.26871V8.31176C6.86646 8.18486 6.81476 8.06316 6.72273 7.97343C6.6307 7.8837 6.50588 7.83329 6.37572 7.83329H5.39424C5.26409 7.83329 5.13927 7.8837 5.04723 7.97343Z" fill="#4192B5"/>
<path d="M7.99168 7.97343C8.08371 7.8837 8.20853 7.83329 8.33869 7.83329H9.32017C9.45032 7.83329 9.57514 7.8837 9.66718 7.97343C9.75921 8.06316 9.81091 8.18486 9.81091 8.31176V9.26871C9.81091 9.39561 9.75921 9.51731 9.66718 9.60704C9.57514 9.69677 9.45032 9.74718 9.32017 9.74718H8.33869C8.20853 9.74718 8.08371 9.69677 7.99168 9.60704C7.89965 9.51731 7.84795 9.39561 7.84795 9.26871V8.31176C7.84795 8.18486 7.89965 8.06316 7.99168 7.97343Z" fill="#4192B5"/>
<path fill-rule="evenodd" clip-rule="evenodd" d="M0.28356 0.458014C0.0995039 0.637479 -0.00390625 0.880883 -0.00390625 1.13468V14.5319C-0.00390625 14.7857 0.0995039 15.0291 0.28356 15.2086C0.467627 15.388 0.717272 15.4888 0.977575 15.4888H10.7924C11.0527 15.4888 11.3023 15.388 11.4864 15.2086C11.6705 15.0291 11.7739 14.7857 11.7739 14.5319V1.13468C11.7739 0.880883 11.6705 0.637479 11.4864 0.458014C11.3023 0.278559 11.0527 0.177734 10.7924 0.177734H0.977575C0.717272 0.177734 0.467627 0.278559 0.28356 0.458014ZM0.977575 1.13468H10.7924V14.5319H7.84795V12.1395C7.84795 12.0126 7.79625 11.8909 7.70421 11.8012C7.61218 11.7115 7.48736 11.6611 7.3572 11.6611H4.41276C4.28261 11.6611 4.15779 11.7115 4.06575 11.8012C3.97372 11.8909 3.92202 12.0126 3.92202 12.1395V14.5319H0.977575V1.13468Z" fill="#4192B5"/>
</svg>
