<svg width="48" height="48" viewBox="0 0 48 48" fill="none" xmlns="http://www.w3.org/2000/svg">
<mask id="mask0_69_2593" style="mask-type:alpha" maskUnits="userSpaceOnUse" x="0" y="0" width="48" height="48">
<rect width="48" height="48" fill="#D9D9D9"/>
</mask>
<g mask="url(#mask0_69_2593)">
<path d="M4 40V37H16C15.3333 33.9667 13.875 31.3083 11.625 29.025C9.375 26.7417 6.83333 25.2333 4 24.5C4.66667 24.3333 5.325 24.2083 5.975 24.125C6.625 24.0417 7.3 24 8 24C12.4667 24 16.25 25.55 19.35 28.65C22.45 31.75 24 35.5333 24 40H4ZM27 40C27 38.6 26.8667 37.375 26.6 36.325C26.3333 35.275 26 34.2333 25.6 33.2C26.9333 30.2667 28.9333 28 31.6 26.4C34.2667 24.8 37.0667 24 40 24C40.7 24 41.375 24.0417 42.025 24.125C42.675 24.2083 43.3333 24.3333 44 24.5C41.1667 25.2333 38.6 26.7583 36.3 29.075C34 31.3917 32.5667 34.0333 32 37H44V40H27ZM24.1 30.35C23.8 27.8167 24.0167 25.45 24.75 23.25C25.4833 21.05 26.5583 19.1333 27.975 17.5C29.3917 15.8667 31.1 14.5667 33.1 13.6C35.1 12.6333 37.2167 12.1167 39.45 12.05C37.5833 13.2167 35.825 14.8083 34.175 16.825C32.525 18.8417 31.4833 21 31.05 23.3C29.5833 24 28.25 24.975 27.05 26.225C25.85 27.475 24.8667 28.85 24.1 30.35ZM21.05 26.55C20.5167 26.05 19.9333 25.55 19.3 25.05C18.6667 24.55 18.1333 24.1667 17.7 23.9C17.8 23.5 17.875 23.0583 17.925 22.575C17.975 22.0917 18 21.7 18 21.4C18 18.8667 17.6 16.4667 16.8 14.2C16 11.9333 14.8667 9.86667 13.4 8C15.7333 8.93333 17.8 10.4083 19.6 12.425C21.4 14.4417 22.6667 16.75 23.4 19.35C22.8 20.4167 22.2917 21.575 21.875 22.825C21.4583 24.075 21.1833 25.3167 21.05 26.55Z" fill="#4192B5"/>
</g>
</svg>
