<svg width="36" height="36" viewBox="0 0 36 36" fill="none" xmlns="http://www.w3.org/2000/svg">
<path d="M3 8.3V33H33V8.3H26V25.4L18 21.4L10 25.4V8.3H3ZM3 36C2.175 36 1.46883 35.7062 0.8815 35.1185C0.293834 34.5312 0 33.825 0 33V6.55C0 6.22067 0.05 5.903 0.15 5.597C0.25 5.291 0.4 5.00867 0.6 4.75L3.2 1.2C3.46667 0.833333 3.81567 0.541667 4.247 0.325C4.67833 0.108333 5.12933 0 5.6 0H30.35C30.8207 0 31.2717 0.108333 31.703 0.325C32.1343 0.541667 32.4833 0.833333 32.75 1.2L35.4 4.75C35.6 5.00867 35.75 5.291 35.85 5.597C35.95 5.903 36 6.22067 36 6.55V33C36 33.825 35.7063 34.5312 35.119 35.1185C34.5313 35.7062 33.825 36 33 36H3ZM3.85 5.3H32.1L30.2795 3H5.65L3.85 5.3ZM13 8.3V20.55L18 18.05L23 20.55V8.3H13Z" fill="#4192B5"/>
</svg>
