<svg width="48" height="48" viewBox="0 0 48 48" fill="none" xmlns="http://www.w3.org/2000/svg">
<mask id="mask0_69_2604" style="mask-type:alpha" maskUnits="userSpaceOnUse" x="0" y="0" width="48" height="48">
<rect width="48" height="48" fill="#D9D9D9"/>
</mask>
<g mask="url(#mask0_69_2604)">
<path d="M8.89973 44H5.99973V41H8.89973C10.2331 41 11.5497 40.8167 12.8497 40.45C14.1497 40.0833 15.4164 39.5167 16.6497 38.75C17.8164 39.4833 19.0164 40.025 20.2497 40.375C21.4831 40.725 22.7331 40.9 23.9997 40.9C25.2664 40.9 26.5164 40.725 27.7497 40.375C28.9831 40.025 30.1831 39.4833 31.3497 38.75C32.6164 39.5167 33.9081 40.0833 35.2247 40.45C36.5414 40.8167 37.8497 41 39.1497 41H41.9997V44H39.1497C37.8497 44 36.5497 43.85 35.2497 43.55C33.9497 43.25 32.6664 42.7833 31.3997 42.15C30.1331 42.7833 28.8831 43.25 27.6497 43.55C26.4164 43.85 25.1997 44 23.9997 44C22.7997 44 21.5831 43.8417 20.3497 43.525C19.1164 43.2083 17.8831 42.75 16.6497 42.15C15.3831 42.75 14.0914 43.2083 12.7747 43.525C11.4581 43.8417 10.1664 44 8.89973 44ZM23.9997 36.55C22.7997 36.55 21.5414 36.2083 20.2247 35.525C18.9081 34.8417 17.6664 33.8833 16.4997 32.65C15.3997 33.75 14.2164 34.625 12.9497 35.275C11.6831 35.925 10.3997 36.3333 9.09973 36.5L5.54973 24.25C5.41639 23.85 5.44973 23.475 5.64973 23.125C5.84973 22.775 6.14973 22.5333 6.54973 22.4L9.29973 21.6V12.1C9.29973 11.2667 9.59139 10.5583 10.1747 9.97501C10.7581 9.39168 11.4664 9.10001 12.2997 9.10001H18.8997V3.95001H29.0997V9.10001H35.6997C36.5331 9.10001 37.2414 9.39168 37.8247 9.97501C38.4081 10.5583 38.6997 11.2667 38.6997 12.1V21.6L41.4497 22.4C41.8497 22.5333 42.1497 22.775 42.3497 23.125C42.5497 23.475 42.5831 23.85 42.4497 24.25L38.8997 36.5C37.5997 36.3333 36.3164 35.925 35.0497 35.275C33.7831 34.625 32.5997 33.75 31.4997 32.65C30.3331 33.8833 29.0914 34.8417 27.7747 35.525C26.4581 36.2083 25.1997 36.55 23.9997 36.55ZM24.0497 33.55C25.1164 33.55 26.0914 33.25 26.9747 32.65C27.8581 32.05 28.6497 31.3333 29.3497 30.5L31.3997 28.1L33.1997 30C33.7331 30.5667 34.2997 31.0833 34.8997 31.55C35.4997 32.0167 36.1331 32.4333 36.7997 32.8L39.1997 24.85L23.9997 20.25L8.79973 24.85L11.1997 32.8C11.8664 32.4333 12.4997 32.0167 13.0997 31.55C13.6997 31.0833 14.2664 30.5667 14.7997 30L16.5997 28.1L18.6497 30.5C19.3831 31.3333 20.1997 32.05 21.0997 32.65C21.9997 33.25 22.9831 33.55 24.0497 33.55ZM12.2997 20.65L23.9997 17.1L35.6997 20.7V12.1H12.2997V20.65Z" fill="#4192B5"/>
</g>
</svg>
