<svg width="19" height="19" viewBox="0 0 19 19" fill="none" xmlns="http://www.w3.org/2000/svg">
<path d="M18.4699 1.42988C18.5109 1.32752 18.5209 1.2154 18.4987 1.1074C18.4766 0.999396 18.4232 0.900272 18.3453 0.822314C18.2673 0.744356 18.1682 0.690992 18.0602 0.668838C17.9522 0.646683 17.8401 0.656713 17.7377 0.697683L1.35116 7.25252H1.35004L0.84088 7.45529C0.744444 7.49375 0.660518 7.55813 0.598371 7.6413C0.536225 7.72447 0.498277 7.8232 0.48872 7.92658C0.479162 8.02997 0.498367 8.13398 0.544213 8.22713C0.590059 8.32029 0.660761 8.39896 0.74851 8.45445L1.21036 8.74733L1.21148 8.74958L6.83813 12.3295L8.62919 15.1433C9.49881 16.4275 9.49881 15.301 9.49881 14.7378C9.49868 14.0221 9.65013 13.3144 9.9432 12.6614C10.2363 12.0083 10.6643 11.4248 11.1991 10.9491C11.734 10.4735 12.3635 10.1164 13.0462 9.90158C13.729 9.68673 14.4495 9.6189 15.1604 9.70256L18.4699 1.42988ZM16.4051 3.55888L7.96346 12.0005L7.72127 11.6198C7.67689 11.5499 7.61766 11.4907 7.54779 11.4463L7.16705 11.2041L15.6087 2.76247L16.9357 2.23191L16.4051 3.55888Z" fill="white"/>
<path d="M18.5102 14.7378C18.5102 15.7835 18.0948 16.7863 17.3554 17.5257C16.616 18.265 15.6132 18.6804 14.5676 18.6804C13.522 18.6804 12.5191 18.265 11.7798 17.5257C11.0404 16.7863 10.625 15.7835 10.625 14.7378C10.625 13.6922 11.0404 12.6894 11.7798 11.95C12.5191 11.2106 13.522 10.7952 14.5676 10.7952C15.6132 10.7952 16.616 11.2106 17.3554 11.95C18.0948 12.6894 18.5102 13.6922 18.5102 14.7378ZM16.2652 12.8465C16.2017 12.8085 16.1314 12.7833 16.0582 12.7725C15.985 12.7616 15.9104 12.7653 15.8386 12.7833C15.7669 12.8013 15.6994 12.8332 15.64 12.8773C15.5806 12.9214 15.5304 12.9768 15.4924 13.0403L14.1745 15.2368L13.5583 14.6207C13.4525 14.5149 13.3091 14.4555 13.1595 14.4555C13.01 14.4555 12.8665 14.5149 12.7608 14.6207C12.655 14.7264 12.5956 14.8699 12.5956 15.0194C12.5956 15.169 12.655 15.3124 12.7608 15.4182L13.6326 16.2889C13.7234 16.3799 13.8337 16.4489 13.9551 16.4908C14.0766 16.5327 14.206 16.5463 14.3335 16.5307C14.461 16.5151 14.5832 16.4705 14.691 16.4005C14.7987 16.3305 14.889 16.2369 14.9551 16.1267L16.4589 13.6193C16.4969 13.5558 16.5221 13.4855 16.5329 13.4123C16.5438 13.3391 16.5401 13.2645 16.5221 13.1927C16.5041 13.121 16.4722 13.0535 16.4281 12.9941C16.384 12.9347 16.3286 12.8845 16.2652 12.8465Z" fill="white"/>
</svg>
