<svg width="10" height="14" viewBox="0 0 10 14" fill="none" xmlns="http://www.w3.org/2000/svg">
<path d="M5.00126 13.5589C3.78803 13.5589 2.8107 13.3819 2.06928 13.0281C1.32786 12.6742 0.957146 12.2108 0.957146 11.6379C0.957146 11.3458 1.06667 11.079 1.28573 10.8375C1.50479 10.596 1.81652 10.3853 2.22093 10.2056L3.19826 11.1324C3.02976 11.1885 2.85002 11.2588 2.65905 11.343C2.46807 11.4273 2.30519 11.5312 2.17038 11.6547C2.26025 11.812 2.60849 11.9665 3.21511 12.1181C3.82173 12.2698 4.41711 12.3456 5.00126 12.3456C5.63035 12.3456 6.24258 12.2698 6.83797 12.1181C7.43335 11.9665 7.76474 11.7952 7.83215 11.6042C7.68611 11.5031 7.5148 11.4104 7.31821 11.3262C7.12162 11.2419 6.93907 11.1717 6.77057 11.1155L7.74789 10.1719C8.17477 10.3516 8.49774 10.5679 8.7168 10.8206C8.93585 11.0734 9.04538 11.3458 9.04538 11.6379C9.04538 12.2108 8.67467 12.6742 7.93325 13.0281C7.19183 13.3819 6.2145 13.5589 5.00126 13.5589ZM5.01811 10.0202C6.08531 9.23389 6.88852 8.42788 7.42773 7.6022C7.96695 6.77653 8.23656 5.9649 8.23656 5.16731C8.23656 4.06641 7.88831 3.23512 7.19183 2.67344C6.49534 2.11175 5.76515 1.83091 5.00126 1.83091C4.23738 1.83091 3.50719 2.11175 2.8107 2.67344C2.11421 3.23512 1.76597 4.06641 1.76597 5.16731C1.76597 5.8975 2.03558 6.66981 2.57479 7.48425C3.11401 8.29869 3.92845 9.14402 5.01811 10.0202ZM5.00126 11.5368C3.50719 10.4359 2.39225 9.34904 1.65644 8.27622C0.920637 7.20341 0.552734 6.1671 0.552734 5.16731C0.552734 4.42589 0.687538 3.77153 0.957146 3.20423C1.22675 2.63693 1.575 2.1623 2.00188 1.78036C2.42876 1.39842 2.90619 1.10915 3.43417 0.912559C3.96215 0.71597 4.48452 0.617676 5.00126 0.617676C5.51801 0.617676 6.04038 0.71597 6.56836 0.912559C7.09634 1.10915 7.57377 1.39842 8.00065 1.78036C8.42753 2.1623 8.77577 2.63693 9.04538 3.20423C9.31499 3.77153 9.44979 4.42589 9.44979 5.16731C9.44979 6.1671 9.08189 7.20341 8.34609 8.27622C7.61028 9.34904 6.49534 10.4359 5.00126 11.5368ZM5.00126 6.27944C5.33827 6.27944 5.62473 6.16149 5.86064 5.92558C6.09655 5.68967 6.2145 5.40321 6.2145 5.06621C6.2145 4.7292 6.09655 4.44274 5.86064 4.20683C5.62473 3.97092 5.33827 3.85297 5.00126 3.85297C4.66425 3.85297 4.3778 3.97373 4.14189 4.21526C3.90598 4.45678 3.78803 4.74043 3.78803 5.06621C3.78803 5.39198 3.90598 5.67563 4.14189 5.91716C4.3778 6.15868 4.66425 6.27944 5.00126 6.27944Z" fill="#4192B5"/>
</svg>
