<svg width="10" height="7" viewBox="0 0 10 7" fill="none" xmlns="http://www.w3.org/2000/svg">
<path d="M9.9 1.65001L5.23 6.31001C5.17 6.38335 5.09333 6.42001 5 6.42001C4.90667 6.42001 4.83 6.38335 4.77 6.31001L0.1 1.65001C0.0333333 1.58335 0 1.50835 0 1.42501C0 1.34168 0.0333333 1.26001 0.1 1.18001L0.6 0.680014C0.666667 0.613347 0.743333 0.580014 0.83 0.580014C0.916667 0.580014 0.993333 0.613347 1.06 0.680014L5 4.62001L8.94 0.680014C9.00667 0.613347 9.08333 0.580014 9.17 0.580014C9.25667 0.580014 9.33333 0.613347 9.4 0.680014L9.9 1.18001C9.96667 1.26001 10 1.34168 10 1.42501C10 1.50835 9.96667 1.58335 9.9 1.65001Z" fill="#333333"/>
</svg>
