<svg width="8" height="17" viewBox="0 0 8 17" fill="none" xmlns="http://www.w3.org/2000/svg">
<path d="M2.40484 16.2245C2.40484 15.6427 2.40157 15.0577 2.40157 14.476C2.40157 12.8157 2.40157 11.1521 2.4081 9.49179C2.4081 9.37087 2.37542 9.33491 2.25123 9.33491C1.55508 9.34145 0.855658 9.33491 0.159509 9.34145C0.0287768 9.34145 -0.00390625 9.30223 -0.00390625 9.17477C0.00263036 8.38057 0.00263036 7.5831 -0.00390625 6.7889C-0.00390625 6.65817 0.0353134 6.62222 0.162777 6.62549C0.855658 6.63203 1.54527 6.62549 2.23815 6.63203C2.37542 6.63203 2.41137 6.59281 2.41137 6.4588C2.41464 5.69075 2.38523 4.9227 2.42771 4.15465C2.46367 3.54674 2.64342 2.97806 2.94411 2.44859C3.4605 1.54327 4.27758 1.11839 5.28094 0.964783C6.16339 0.830782 7.02949 0.941905 7.89559 1.09551C7.98057 1.11186 8.00018 1.15108 8.00018 1.22625C8.00018 1.90605 7.99691 2.58913 8.00018 3.26894C8.00018 3.38006 7.94461 3.3866 7.85637 3.3866C7.45437 3.39313 7.0491 3.40294 6.6471 3.41601C6.05227 3.43889 5.61758 3.77226 5.43782 4.34421C5.33977 4.6547 5.31363 4.97499 5.31036 5.29529C5.30709 5.68748 5.3169 6.07968 5.30709 6.47188C5.30382 6.59607 5.34304 6.62876 5.46397 6.62876C6.21568 6.62222 6.96739 6.62876 7.7191 6.62222C7.85637 6.62222 7.89559 6.65163 7.87598 6.79544C7.76159 7.59291 7.657 8.39364 7.55242 9.19111C7.53608 9.3055 7.49686 9.34472 7.3792 9.34472C6.74841 9.33818 6.11436 9.34799 5.48358 9.33818C5.33651 9.33491 5.30382 9.38067 5.30382 9.52448C5.30709 11.6816 5.30709 13.8386 5.30709 15.9957C5.30709 16.0709 5.30056 16.1493 5.30056 16.2245C4.33967 16.2245 3.37225 16.2245 2.40484 16.2245Z" fill="#FEFFFF"/>
</svg>
