<svg width="20" height="20" viewBox="0 0 20 20" fill="none" xmlns="http://www.w3.org/2000/svg">
<path d="M9.99379 16.2444C13.5534 16.2444 16.4914 13.3064 16.4914 9.75307C16.4914 6.19978 13.5471 3.26172 9.98751 3.26172C6.43422 3.26172 3.50244 6.19978 3.50244 9.75307C3.50244 13.3064 6.4405 16.2444 9.99379 16.2444ZM6.21449 5.81682C6.83601 5.22042 7.60191 4.76214 8.44943 4.50474C8.0037 4.95047 7.62702 5.58454 7.34452 6.35045C6.90506 6.21233 6.52211 6.03027 6.21449 5.81682ZM11.5444 4.51102C12.3919 4.76842 13.1516 5.22042 13.7731 5.8231C13.4655 6.03655 13.0888 6.21233 12.6493 6.35672C12.3668 5.58454 11.9902 4.95675 11.5444 4.51102ZM8.21715 6.57017C8.56243 5.64732 9.03327 4.96931 9.55434 4.72447V6.70829C9.07722 6.68945 8.63149 6.64551 8.21715 6.57017ZM10.4332 4.72447C10.9543 4.96931 11.4314 5.64732 11.7704 6.57017C11.3624 6.64551 10.9104 6.68945 10.4332 6.70829V4.72447ZM4.5383 9.31362C4.62619 8.25265 5.02169 7.2733 5.63693 6.46973C6.0136 6.75223 6.50956 6.99707 7.08712 7.17913C6.9239 7.82575 6.82345 8.54771 6.79206 9.31362H4.5383ZM13.1955 9.31362C13.1704 8.54771 13.0637 7.82575 12.9005 7.17913C13.478 6.99707 13.974 6.75223 14.3507 6.46973C14.9659 7.2733 15.3614 8.25265 15.4493 9.31362H13.1955ZM10.4332 9.31362V7.58719C10.992 7.56836 11.5319 7.50558 12.0278 7.40513C12.1722 7.98898 12.2727 8.6356 12.2978 9.31362H10.4332ZM7.6898 9.31362C7.72119 8.6356 7.81536 7.98898 7.95975 7.40513C8.46198 7.50558 8.99561 7.56836 9.55434 7.58719V9.31362H7.6898ZM4.5383 10.1925H6.79206C6.81717 10.971 6.9239 11.6992 7.0934 12.3584C6.52211 12.5405 6.02616 12.779 5.64948 13.0552C5.02797 12.2454 4.62619 11.2598 4.5383 10.1925ZM7.6898 10.1925H9.55434V11.9503C9.00188 11.9692 8.46198 12.0319 7.96603 12.1324C7.81536 11.536 7.72119 10.8768 7.6898 10.1925ZM10.4332 11.9503V10.1925H12.3041C12.2727 10.8768 12.1722 11.536 12.0216 12.1324C11.5256 12.0319 10.992 11.9692 10.4332 11.9503ZM12.9005 12.3584C13.0637 11.6992 13.1704 10.971 13.2018 10.1925H15.4493C15.3614 11.2598 14.9596 12.2454 14.3381 13.0552C13.9614 12.779 13.4717 12.5405 12.9005 12.3584ZM10.4332 12.8292C10.9104 12.8481 11.3498 12.892 11.7642 12.9674C11.4252 13.8714 10.9543 14.5431 10.4332 14.7879V12.8292ZM8.2297 12.9674C8.63776 12.892 9.0835 12.8481 9.55434 12.8292V14.7879C9.03955 14.5431 8.56871 13.8714 8.2297 12.9674ZM6.23333 13.7019C6.54095 13.4947 6.91762 13.3189 7.35079 13.1808C7.62702 13.9342 8.0037 14.5557 8.43687 14.9951C7.60191 14.744 6.84856 14.292 6.23333 13.7019ZM12.6431 13.1808C13.0762 13.3189 13.4529 13.4947 13.7605 13.7019C13.139 14.292 12.3857 14.744 11.5507 14.9951C11.9902 14.5557 12.3606 13.9342 12.6431 13.1808Z" fill="#1C1C1E"/>
</svg>
