<svg width="17" height="18" viewBox="0 0 17 18" fill="none" xmlns="http://www.w3.org/2000/svg">
<g clip-path="url(#clip0_260_441)">
<path d="M8.52568 4.11933C6.13593 4.09699 4.12213 6.07356 4.0998 8.46332C4.07747 10.868 6.02798 12.878 8.41029 12.9004C10.8224 12.9264 12.8473 10.9647 12.8697 8.58615C12.892 6.16662 10.9266 4.14538 8.52568 4.11933ZM8.46985 11.3258C6.89901 11.3109 5.65947 10.0565 5.67436 8.49682C5.68925 6.92598 6.93996 5.69761 8.51079 5.7125C10.0667 5.72739 11.3063 6.98926 11.2914 8.53776C11.2765 10.0974 10.0183 11.3444 8.46985 11.3258Z" fill="white"/>
<path d="M13.0031 2.95071C12.415 2.95443 11.9497 3.42344 11.9571 4.00413C11.9646 4.57737 12.4485 5.05011 13.0254 5.05011C13.5652 5.05011 14.064 4.5476 14.0565 4.00413C14.0491 3.41972 13.5763 2.94698 13.0031 2.95071Z" fill="white"/>
<path d="M16.9939 8.51936C16.9939 8.38535 16.9976 8.24762 16.9976 8.11362C17.0051 7.01552 16.9865 5.91743 16.9418 4.82306C16.886 3.35273 16.3834 2.07224 15.2146 1.11559C14.5334 0.560959 13.7406 0.229669 12.8733 0.144055C11.9873 0.0547181 11.0903 0.0137722 10.2006 0.00632745C8.65584 -0.00856197 7.11106 0.0100498 5.56628 0.0323839C4.85903 0.043551 4.15178 0.0733299 3.46315 0.270615C1.69131 0.776855 0.578323 1.93079 0.183753 3.73241C0.0609157 4.2982 0.00880267 4.88634 0.00508031 5.46702C-0.0023644 6.48323 -0.0023644 7.50315 -0.0023644 8.51936C-0.00608676 9.53556 -0.0023644 10.5555 0.00135796 11.5717C0.00508031 12.1524 0.0571933 12.7405 0.180031 13.3063C0.574601 15.1079 1.68758 16.2619 3.46315 16.7718C4.14806 16.9691 4.85903 16.9989 5.56628 17.01C7.11106 17.0324 8.65584 17.051 10.2006 17.0361C11.094 17.0287 11.9873 16.9877 12.8733 16.8984C13.7406 16.8128 14.5297 16.4815 15.2146 15.9268C16.3872 14.9702 16.886 13.6897 16.9418 12.2194C16.9865 11.125 17.0051 10.0232 16.9976 8.92881C16.9939 8.79109 16.9939 8.65336 16.9939 8.51936ZM15.4119 8.75759C15.3821 9.98969 15.3672 11.2255 15.3151 12.4576C15.2891 13.0532 15.1067 13.619 14.7642 14.1141C14.258 14.8474 13.5247 15.2159 12.6685 15.3164C11.9501 15.3983 11.2205 15.4243 10.4984 15.4355C9.18813 15.4541 7.88159 15.4615 6.57132 15.4355C5.75612 15.4206 4.92976 15.402 4.12573 15.2792C2.76707 15.0707 1.92582 14.1997 1.70247 12.841C1.61686 12.3124 1.57591 11.769 1.56847 11.2292C1.55358 10.3247 1.54241 9.41644 1.54241 8.51191C1.54241 7.60738 1.54986 6.69912 1.56847 5.79459C1.57964 5.25857 1.61686 4.71511 1.70247 4.18653C1.92582 2.82787 2.76707 1.95684 4.12573 1.74839C4.92976 1.62555 5.75612 1.60694 6.57132 1.59205C7.87786 1.56972 9.18813 1.57344 10.4984 1.59205C11.2243 1.60322 11.9501 1.62555 12.6685 1.71117C13.5247 1.81167 14.258 2.18018 14.7642 2.91349C15.1067 3.41228 15.2891 3.97436 15.3151 4.56994C15.3672 5.80204 15.3821 7.03414 15.4119 8.26996C15.4156 8.34813 15.4119 8.43002 15.4119 8.50819C15.4119 8.59753 15.4156 8.67942 15.4119 8.75759Z" fill="white"/>
</g>
<defs>
<clipPath id="clip0_260_441">
<rect width="17" height="17.0409" fill="white" transform="translate(0 -0.000976562)"/>
</clipPath>
</defs>
</svg>
