<svg width="62" height="62" viewBox="0 0 62 62" fill="none" xmlns="http://www.w3.org/2000/svg">
<g filter="url(#filter0_d_41_495)">
<path d="M57 30C57 15.6406 45.3594 4 31 4C16.6406 4 5 15.6406 5 30C5 44.3594 16.6406 56 31 56C45.3594 56 57 44.3594 57 30Z" fill="url(#paint0_linear_41_495)"/>
</g>
<mask id="mask0_41_495" style="mask-type:alpha" maskUnits="userSpaceOnUse" x="18" y="18" width="25" height="25">
<rect width="24.2019" height="24.2019" transform="matrix(-1 0 0 1 43 18)" fill="#D9D9D9"/>
</mask>
<g mask="url(#mask0_41_495)">
<path d="M33.7397 40.5884L36.2607 38.0674L28.2943 30.1009L36.2607 22.1344L33.7397 19.6134L23.2522 30.1009L33.7397 40.5884Z" fill="#4192B5"/>
</g>
<defs>
<filter id="filter0_d_41_495" x="0.3" y="0.3" width="61.4" height="61.4" filterUnits="userSpaceOnUse" color-interpolation-filters="sRGB">
<feFlood flood-opacity="0" result="BackgroundImageFix"/>
<feColorMatrix in="SourceAlpha" type="matrix" values="0 0 0 0 0 0 0 0 0 0 0 0 0 0 0 0 0 0 127 0" result="hardAlpha"/>
<feOffset dy="1"/>
<feGaussianBlur stdDeviation="2.35"/>
<feComposite in2="hardAlpha" operator="out"/>
<feColorMatrix type="matrix" values="0 0 0 0 0 0 0 0 0 0 0 0 0 0 0 0 0 0 0.07 0"/>
<feBlend mode="normal" in2="BackgroundImageFix" result="effect1_dropShadow_41_495"/>
<feBlend mode="normal" in="SourceGraphic" in2="effect1_dropShadow_41_495" result="shape"/>
</filter>
<linearGradient id="paint0_linear_41_495" x1="57" y1="55.7589" x2="-4.54236" y2="38.7329" gradientUnits="userSpaceOnUse">
<stop stop-color="#F6F6F6"/>
<stop offset="1" stop-color="#E8F5FA"/>
</linearGradient>
</defs>
</svg>
