<svg width="14" height="15" viewBox="0 0 14 15" fill="none" xmlns="http://www.w3.org/2000/svg">
<g clip-path="url(#clip0_260_447)">
<path d="M7.40617 6.03175C7.84067 5.538 8.33441 5.15091 8.93086 4.91391C10.3647 4.34511 11.7156 4.48731 12.9006 5.5143C13.5326 6.06335 13.8051 6.8257 13.9592 7.62755C13.9868 7.7737 13.9947 7.92774 13.9947 8.07784C13.9987 9.98569 13.9947 11.8935 13.9987 13.8053C13.9987 13.9791 13.9631 14.0423 13.7735 14.0384C12.9914 14.0265 12.2054 14.0265 11.4233 14.0384C11.2377 14.0423 11.1784 13.9989 11.1824 13.8053C11.1942 12.2372 11.1903 10.673 11.1942 9.10484C11.1942 8.97844 11.1942 8.85599 11.1824 8.72959C11.056 7.5999 10.1514 6.98765 8.99011 7.24045C8.12507 7.43005 7.57207 8.14894 7.56812 9.10089C7.56417 10.669 7.56417 12.2332 7.57207 13.8014C7.57207 13.9949 7.51677 14.0384 7.33112 14.0384C6.54902 14.0265 5.76297 14.0305 4.98088 14.0384C4.82288 14.0384 4.76758 14.0068 4.76758 13.8369C4.77153 10.8823 4.77153 7.92775 4.76758 4.97316C4.76758 4.81911 4.80313 4.77171 4.96508 4.77171C5.71557 4.77961 6.46607 4.77961 7.21657 4.77171C7.37852 4.77171 7.41407 4.82306 7.41012 4.97316C7.39827 5.32076 7.40617 5.67625 7.40617 6.03175Z" fill="#FDFEFF"/>
<path d="M3.17649 9.41689C3.17649 10.8823 3.17254 12.3517 3.18044 13.8172C3.18044 13.9949 3.12909 14.0344 2.95924 14.0344C2.14159 14.0265 1.3279 14.0265 0.510251 14.0344C0.368052 14.0344 0.300902 14.0107 0.304852 13.8448C0.308802 10.8823 0.308802 7.9238 0.304852 4.96131C0.304852 4.82306 0.328552 4.76381 0.486551 4.76776C1.32395 4.77566 2.15739 4.77566 2.99479 4.76776C3.14489 4.76776 3.18044 4.81121 3.18044 4.95736C3.17254 6.44256 3.17649 7.9317 3.17649 9.41689Z" fill="#FDFEFF"/>
<path d="M1.7428 0.102539C2.65525 0.102539 3.386 0.833286 3.38205 1.74968C3.3781 2.66213 2.6434 3.39288 1.73095 3.38893C0.830356 3.38498 0.0996094 2.65028 0.0996094 1.74968C0.0996094 0.837236 0.830356 0.102539 1.7428 0.102539Z" fill="#FDFEFF"/>
</g>
<defs>
<clipPath id="clip0_260_447">
<rect width="13.9" height="13.9355" fill="white" transform="translate(0.0996094 0.102539)"/>
</clipPath>
</defs>
</svg>
