<svg width="18" height="17" viewBox="0 0 18 17" fill="none" xmlns="http://www.w3.org/2000/svg">
<mask id="mask0_260_405" style="mask-type:alpha" maskUnits="userSpaceOnUse" x="0" y="0" width="18" height="17">
<rect x="0.912109" width="16.1765" height="16.1765" fill="#D9D9D9"/>
</mask>
<g mask="url(#mask0_260_405)">
<path d="M3.74449 12.9412C3.41085 12.9412 3.12523 12.8224 2.88764 12.5847C2.65005 12.347 2.53125 12.0612 2.53125 11.7273V4.44387C2.53125 4.11 2.65005 3.82512 2.88764 3.58921C3.12523 3.3533 3.41085 3.23535 3.74449 3.23535H14.2592C14.5928 3.23535 14.8784 3.3542 15.116 3.59191C15.3536 3.82961 15.4724 4.1154 15.4724 4.44926V11.7327C15.4724 12.0666 15.3536 12.3515 15.116 12.5874C14.8784 12.8233 14.5928 12.9412 14.2592 12.9412H3.74449ZM9.00184 8.89712L3.74449 5.88088V11.728H14.2592V5.88088L9.00184 8.89712ZM9.00184 7.46482L14.2592 4.44859H3.74449L9.00184 7.46482ZM3.74449 5.88088V4.44859V11.728V5.88088Z" fill="#4192B5"/>
</g>
</svg>
