<svg width="1707" height="854" viewBox="0 0 1707 854" fill="none" xmlns="http://www.w3.org/2000/svg">
<path d="M650 5.20005C643.467 5.60005 636.8 6.66672 635.333 7.46672C633.867 8.26672 623.333 9.33338 612 9.73338C593.2 10.4001 561.6 14.0001 560 15.7334C559.6 16.0001 560.133 16.6667 561.067 16.9334C562.8 17.6001 563.333 21.3334 561.733 21.3334C561.067 21.4667 554.133 22.2667 546.133 23.2001C530.667 25.2001 527.333 26.9334 531.867 30.8C534.267 32.8 538.267 33.7334 557.733 37.2001C570.933 39.6001 576.533 45.8667 571.333 52.8C568.4 56.8 568.933 58.1334 574.4 59.6L579.333 60.9334L573.733 62C569.2 62.8 568 63.6 568 65.7334C568 68 568.667 68.2667 572.533 67.6C576.267 67.0667 577.067 67.2 576.4 68.8C576 69.8667 574.4 70.6667 572.667 70.6667C570.8 70.6667 568.267 72.4 566.133 75.2C562.933 79.3334 562.667 80.9334 562.667 91.7334C562.667 105.067 565.6 117.067 569.067 118.133C570.267 118.533 573.867 120 576.933 121.467C584.667 125.333 589.467 124 595.067 116.8C597.467 113.6 603.2 106.933 607.733 102L616 92.9334L629.067 90C638.533 87.8667 644.133 85.7334 649.333 82.2667C656.4 77.6 686.4 67.3334 695.333 66.4C699.067 66 699.333 65.6 699.733 60.4C700.133 54.4 702.933 51.2001 712.133 46.2667C715.333 44.4 716 43.4667 714.8 42.6667C712.4 41.3334 714 34.6667 716.667 34.6667C719.733 34.6667 720.267 32.2667 718 28.1334C715.733 23.6001 716 23.3334 725.333 20.5334C728.933 19.4667 735.733 16.8 740.267 14.5334L748.667 10.5334L739.333 11.3334C734.267 11.7334 728.667 12.4001 727.067 12.8C725.467 13.0667 723.733 12.5334 723.067 11.4667C722.533 10.5334 716.4 8.40005 709.6 6.80005C696.667 3.86672 678.533 3.46672 650 5.20005Z" fill="#E6E6E6"/>
<path d="M521.333 8.13334C510.4 10.1333 476 13.3333 474 12.5333C472.8 12 469.467 13.3333 466.4 15.4667C462.667 18.1333 460.667 18.8 460.4 17.6C459.2 14.2667 457.333 16.1333 457.333 20.5333C457.333 26.4 461.333 29.6 467.067 28.4C474.8 26.8 469.467 30.5333 459.867 33.3333C451.467 35.8667 450.133 36 448.267 34.1333C446.933 33.0667 443.6 32 440.667 31.7333C435.733 31.3333 435.333 31.6 434.667 35.3333C434.133 38.6667 433.333 39.3333 430 39.3333C427.067 39.3333 426.133 38.8 426.4 37.0667C426.8 34.5333 426.133 34 420.4 32.8C416.533 31.8667 416 32.2667 414 36C412.8 38.4 412 40.5333 412.4 40.8C412.667 41.2 418.267 42 424.8 42.8L436.667 44.1333L439.467 40.5333C442.267 37.0667 445.867 37.0667 444.533 40.4C443.467 43.3333 459.067 45.6 468.4 44.1333C472.667 43.3333 477.867 43.0667 479.733 43.4667C483.6 44.2667 489.467 40.9333 487.6 39.0667C486.933 38.5333 480.533 38 473.333 38C460.4 38 460.267 38 463.867 35.6C466.667 33.6 469.6 33.3333 479.333 33.6C486 33.7333 492 33.4667 492.933 32.9333C493.733 32.4 495.333 32.4 496.533 32.8C497.6 33.2 504.4 30.8 511.6 27.3333C524.667 21.0667 535.333 17.6 552.667 14C575.867 9.33334 578.667 8.66667 578.667 8.00001C578.667 6.80001 527.733 6.93334 521.333 8.13334Z" fill="#E6E6E6"/>
<path d="M443.067 21.3333C440.4 22.4 440.267 22.9333 441.467 25.8667C442.933 28.9333 447.067 31.2 448.533 29.6C448.933 29.2 449.333 26.9333 449.333 24.4C449.333 19.7333 448.267 19.2 443.067 21.3333Z" fill="#E6E6E6"/>
<path d="M390.267 23.4666C388.133 24.5333 385.333 26.6666 383.867 28.1333C381.333 30.6666 381.333 30.6666 384.8 30.6666C389.067 30.6666 397.6 25.6 396.933 23.6C396.267 21.3333 394.267 21.3333 390.267 23.4666Z" fill="#E6E6E6"/>
<path d="M418.267 22.2666C416.267 24.2666 417.734 25.3333 424.667 27.3333C430.134 28.9333 432.534 29.2 434.667 28C438.4 26 437.2 24.6666 430.134 22.8C423.334 21.0666 419.467 20.9333 418.267 22.2666Z" fill="#E6E6E6"/>
<path d="M353.334 30.9333C347.867 32.4 341.067 33.8666 338.4 34.2666C332.267 35.0666 333.067 37.3333 339.467 37.3333C342.267 37.3333 345.067 38.4 346.667 40C348.134 41.4666 350.534 42.6666 351.867 42.6666C353.334 42.6666 356.267 43.7333 358.4 44.9333C362.267 47.2 362.8 47.2 368.934 44.9333C372.4 43.7333 378.8 42.6666 382.934 42.6666C388.4 42.6666 391.067 42 392.8 40.2666C395.067 38.1333 395.067 38 392.8 37.6C391.467 37.3333 390.8 36.2666 391.2 35.2C392.267 32.5333 388.934 32.9333 383.334 36.1333C378.4 39.0666 376.534 39.0666 367.467 35.6C364.534 34.5333 362.934 33.3333 363.867 32.8C365.467 31.7333 365.867 28 364.4 28.1333C363.734 28.1333 358.8 29.4666 353.334 30.9333Z" fill="#E6E6E6"/>
<path d="M1162.67 30.5333C1160.8 31.0667 1159.33 32.1334 1159.33 33.0667C1159.33 36 1155.6 37.3333 1147.2 37.3333C1138.67 37.3333 1118.13 40.6667 1114.67 42.6667C1112.93 43.7333 1112.93 44 1115.07 44.6667C1120 46.6667 1116.8 48 1107.07 48L1096.67 48.1334L1101.33 52C1103.87 54.2667 1107.47 56 1109.33 56C1112.4 56.1334 1112.4 56.2667 1110.13 57.6C1108.27 58.6667 1106.53 58.5333 1103.07 56.8C1098.67 54.6667 1089.2 53.8666 1087.6 55.4667C1086.13 57.0667 1088.27 60 1091.07 60C1093.07 60 1093.47 60.4 1092.4 61.4667C1089.87 64 1085.47 61.3333 1082.67 55.8666C1081.2 52.9333 1078.93 50.6667 1077.73 50.6667C1075.87 50.6667 1076 51.2 1078.53 53.8666C1081.07 56.5333 1081.2 57.0667 1079.47 57.7333C1076.4 58.9333 1076.93 61.8667 1080.4 63.3333C1082 64.1334 1083.47 66 1083.73 67.6C1084.4 72.2667 1087.33 73.8667 1092.27 72.1334C1095.07 71.0667 1096.93 71.0667 1097.87 72C1099.2 73.3333 1097.47 73.8667 1093.73 73.4667C1091.33 73.2 1090.27 75.8667 1091.87 77.8667C1094.53 81.0667 1090.93 86.6667 1086.4 86.6667C1082.4 86.6667 1081.33 84.8 1084.67 83.4667C1087.6 82.4 1087.2 75.6 1084 73.6C1082.53 72.8 1080.27 69.7333 1078.8 66.8C1077.33 64 1075.2 61.3333 1074 60.9333C1072.93 60.4 1072 58.5333 1072 56.6667C1072 54.2667 1071.33 53.3333 1069.47 53.3333C1068 53.3333 1065.87 52.4 1064.8 51.2C1061.6 48 1057.6 50 1056.53 55.3333C1056.13 57.7333 1054.8 60.1334 1053.73 60.6667C1051.87 61.3333 1051.87 61.6 1053.6 63.7333C1054.67 64.9333 1056 66.9333 1056.4 68.2667C1056.8 69.4667 1059.07 70.8 1061.33 71.3333C1065.07 72.1334 1068 75.2 1066.4 76.6667C1066.13 76.9333 1061.33 75.7333 1055.87 73.8667C1050.53 72 1042.67 70.1334 1038.67 69.7333C1034.67 69.3333 1030 68.1334 1028.4 67.2C1026.8 66.1334 1024.53 65.3333 1023.33 65.3333C1019.6 65.3333 1021.33 67.6 1026.8 69.7333C1031.73 71.6 1032.13 72.2667 1030.67 74C1029.07 76 1028.67 75.8667 1027.47 73.4667C1026.27 71.3333 1025.47 71.0667 1023.33 72.2667C1021.87 73.2 1018.67 74.2667 1016 74.8C1013.47 75.2 1010.27 76.1334 1009.07 76.6667C1007.33 77.3333 1006.67 76.9333 1006.67 75.4667C1006.67 74.2667 1005.73 73.3333 1004.53 73.3333C1001.2 73.3333 984.8 80.1334 983.2 82.1334C981.6 84.1334 977.067 84.6667 975.6 83.0667C975.067 82.6667 975.333 81.4667 976.133 80.4C978.533 77.6 975.067 74.6667 969.333 74.6667H964.267L967.467 80.8C971.067 87.7333 970.8 89.0667 966.267 87.0667C963.867 86 962.533 86.1334 960.133 88.1334C958.4 89.6 956.133 90.6667 955.067 90.6667C953.733 90.6667 953.467 91.4667 954 93.2C954.8 96 952.667 98.2667 951.333 96C950.267 94.2667 940 94.2667 940 96C940 96.6667 941.467 97.6 943.333 98.1334C945.2 98.5333 946.667 99.6 946.667 100.267C946.667 102 940.533 100.533 935.333 97.4667C933.067 96.1334 931.333 94.1334 931.333 92.5333C931.333 91.2 930.133 89.3333 928.667 88.4C926.133 86.8 926.133 86.8 929.333 86.8C931.2 86.8 936 87.3333 940 87.8667C949.333 89.3333 957.333 86.6667 957.333 82.1334C957.333 79.4667 956.267 78.8 949.733 77.4667C945.467 76.5333 935.467 74 927.6 71.8667C919.6 69.6 912.267 68.1334 911.067 68.5333C909.733 69.0667 909.333 68.6667 910 66.8C910.667 64.6667 909.733 64 904.4 62.9333C900 62 897.467 62 896.4 62.9333C895.333 63.7333 892.267 64 888.933 63.6C882.533 62.6667 867.333 66.1334 852.4 71.7333C843.2 75.2 840.267 77.3333 844.667 77.3333C845.733 77.3333 846.667 77.8667 846.667 78.6667C846.667 80 839.867 86.6667 838.533 86.6667C837.333 86.6667 832 95.7333 832 97.6C832 100.8 827.733 104 825.333 102.667C818.533 99.0667 804 109.467 804 118.133C804 120.667 804.8 123.067 805.733 123.467C806.8 123.867 807.333 125.6 806.933 127.867C806.533 131.067 807.067 131.867 811.067 133.733C817.067 136.667 816.933 136.667 823.867 132C830.533 127.467 832 127.067 832 130C832 131.2 833.467 134.4 835.333 137.2C838.8 142.267 838.667 146.667 835.333 146.667C834.4 146.667 832.667 147.067 831.6 147.467C830 148 829.733 147.467 830.267 145.6C830.533 144.133 830.267 142.533 829.467 142.133C828.8 141.6 828.4 140.4 828.933 139.333C830.133 136 824.267 136.933 820.667 140.667C816.8 144.4 816.533 147.867 819.467 153.6C822 158.667 820.933 160 813.2 160.933C804.533 162 800.267 164.667 799.733 168.933C799.467 172 798 173.333 792.267 176C788.533 177.867 784.933 180.4 784.533 181.733C784.133 183.067 781.867 184.933 779.6 185.867C776 187.333 774.8 187.333 771.733 185.733C767.6 183.733 767.467 183.867 769.2 188.4C770.4 191.6 770.4 191.733 765.333 191.067C759.467 190.267 753.333 191.467 753.333 193.333C753.333 194 756.133 196.133 759.733 197.867C767.733 201.867 771.2 208.267 769.867 216.8C769.333 220.667 768.267 222.8 766.667 223.333C763.2 224.4 742.267 223.733 739.6 222.4C738 221.6 735.733 221.733 733.2 222.933C729.333 224.667 729.2 224.933 730 231.333C730.533 236.133 730.133 240 728.133 245.333C726.4 250.267 726 253.333 726.8 254.933C727.467 256.133 728 258.8 728 260.667C728 264 728.267 264.133 733.2 263.333C738 262.533 738.533 262.8 740.933 266.933C743.333 271.067 743.467 271.6 741.333 276.267C740 279.467 736.4 283.2 731.867 286.533C723.733 292.4 721.333 296.267 721.333 303.867C721.333 308.267 720.4 309.867 714.667 315.2C711.067 318.533 706.933 321.333 705.467 321.333C704 321.333 702 322.667 701.2 324.267C700.267 326 697.6 329.6 695.067 332.4C692.533 335.2 690.8 338.4 691.2 339.333C691.467 340.267 690.133 342.667 688 344.667C686 346.667 683.867 350.267 683.467 352.667C682.933 355.067 681.733 357.733 680.667 358.667C678.133 360.8 678.133 366.667 680.533 370.133C681.867 371.867 682 373.2 681.067 374.267C680.267 375.333 680.267 376.667 681.2 378.533C682 380 682.667 382.8 682.667 384.933C682.533 389.867 678 403.067 676.133 403.733C673.867 404.533 674.4 407.6 676.8 408.533C678.4 409.2 678.8 410.4 678.133 413.867C677.067 419.733 679.2 425.067 683.2 426.533C687.733 428.267 695.467 438.267 697.467 445.067C699.2 451.2 700.933 452.8 718.267 465.067L727.867 471.867L733.6 469.333C739.867 466.533 753.2 465.733 757.333 468C759.333 469.067 762.133 468.4 769.867 464.667C787.6 456.267 797.067 457.2 801.867 467.733L804.133 472.933L811.2 472.267C816.4 471.867 819.2 472.267 821.867 474C824.933 476 825.333 477.2 825.333 484.133C825.333 488.667 824.267 494.667 822.8 498.4L820.133 504.933L827.6 516.133C836.533 529.333 845.867 551.2 844.133 554.533C843.333 555.867 843.6 558.267 844.8 561.2C847.467 567.6 847.067 572.933 843.2 582C834.4 602.8 834.8 609.2 845.867 632.667C852.667 647.2 853.333 649.467 853.333 657.733C853.333 665.6 854 668 858.4 676.4C868.933 696.933 872.533 706.667 869.333 706.667C867.6 706.667 873.6 718.267 875.867 719.333C876.8 719.733 881.6 719.067 886.267 717.867C891.067 716.667 896.667 716.133 898.933 716.533C901.333 716.933 904.4 716.533 906.667 715.333C908.8 714.267 912.267 713.333 914.4 713.333C918.4 713.333 924 708 940.8 688.533C949.6 678.267 949.6 678.267 950.533 669.467C951.333 662.267 951.6 661.867 958.267 657.6C964.133 653.733 965.333 652.267 966 647.867C966.533 644.933 966.133 638.667 965.2 634L963.467 625.333L971.467 618C975.733 614 982 609.2 985.333 607.467C994.8 602.4 995.733 600.8 996.8 587.333C997.6 576.267 997.333 574 993.333 560.267C987.733 540.267 987.733 536.133 992.933 524.933C997.6 515.067 1015.33 493.6 1024.8 486.533C1030.67 482.133 1044.67 460.933 1051.47 446.133C1057.2 433.6 1057.2 419.067 1051.6 423.867C1050.67 424.533 1046.27 425.733 1042 426.533C1037.6 427.2 1030.53 428.933 1026.4 430.4L1018.8 432.933L1015.33 429.333C1013.33 427.2 1012.27 424.933 1012.67 423.733C1013.6 421.333 1001.87 406.933 993.067 399.733C988.667 396.133 986.667 393.2 985.333 388.8C984.4 385.6 982.267 381.467 980.533 379.867C978.267 377.733 977.333 375.467 977.333 372C977.333 368.533 975.333 363.6 970.8 355.733C967.2 349.467 962.133 339.467 959.6 333.6C954.933 322.933 954.933 322.8 957.733 321.867C961.2 320.8 966.8 326.933 974.8 340.267C977.6 345.2 980.533 349.6 981.2 350C982 350.4 983.2 354 984 358C985.2 363.867 986.667 366.4 990.8 370.267C993.6 372.933 996.267 376.267 996.8 377.867C997.2 379.467 999.333 382.4 1001.33 384.667C1007.87 391.733 1009.73 397.867 1003.73 392.4C1001.73 390.533 1001.33 390.533 1001.33 392.267C1001.33 393.333 1002.53 395.333 1004 396.667C1005.33 397.867 1007.87 402.933 1009.47 407.867C1011.07 412.667 1013.07 417.067 1013.87 417.6C1015.87 419.067 1023.07 417.467 1024.8 415.2C1025.6 414.133 1028.13 413.333 1030.53 413.333C1034.27 413.333 1036.93 412.4 1042.67 409.067C1043.73 408.4 1048.4 406.133 1052.8 403.867C1057.33 401.733 1061.33 398.8 1061.6 397.6C1062 396.133 1065.07 394.4 1069.73 392.933C1074.67 391.333 1077.47 389.733 1078 388C1078.53 386.533 1079.6 385.333 1080.67 385.333C1083.6 385.333 1090.67 377.333 1090.67 374C1090.67 372 1091.6 370.667 1093.47 370.267C1095.07 369.867 1095.87 368.933 1095.33 368.133C1094.93 367.333 1095.73 364.933 1097.2 362.8C1098.8 360.667 1100 358.267 1100 357.467C1100 355.067 1091.6 348.133 1088.67 348C1083.73 347.867 1080 343.067 1080 336.8C1080 332.133 1078.8 332.4 1072.67 338.667C1067.6 343.867 1058.8 347.733 1056 346C1055.2 345.6 1054.67 343.467 1054.67 341.467C1054.67 339.467 1053.47 336.667 1052 335.333C1049.6 333.2 1049.33 333.2 1048.53 335.2C1047.33 338.267 1045.47 336.667 1042.67 330.133C1041.33 327.2 1038.8 323.2 1036.8 321.467C1032.53 317.467 1032.13 311.467 1035.87 309.333C1041.07 306.533 1043.47 307.733 1048.13 315.467C1051.73 321.467 1054.27 324 1060.53 327.333C1068.53 331.733 1071.47 331.867 1076.53 328.533C1079.2 326.667 1084.8 328.4 1083.33 330.667C1080.67 335.067 1094.93 338.533 1119.33 339.467L1135.33 340.133L1140.67 345.2C1143.6 348.133 1148.13 351.467 1150.67 352.8C1153.2 354 1154.53 355.333 1153.73 355.6C1150.8 356.667 1151.87 359.6 1156.67 363.867C1160.8 367.467 1161.73 367.733 1164.67 366.4C1166.53 365.6 1168 363.867 1168 362.533C1168 361.2 1168.53 359.867 1169.2 359.467C1170.53 358.533 1172 363.067 1172 368.8C1172 375.733 1179.33 398.533 1187.87 417.867C1192.27 428 1196.53 438.533 1197.33 441.467C1199.33 448.667 1203.33 449.733 1208 444C1211.07 440.267 1211.87 439.867 1214.13 441.333C1216.27 442.667 1216.8 444.533 1216.8 450.4C1216.93 455.867 1217.6 458.267 1219.33 459.6C1221.47 461.067 1222.13 460.933 1224.13 459.2C1225.47 458 1227.07 455.333 1227.87 453.333C1228.93 450 1228.53 448.667 1225.33 444.267C1220.67 437.867 1218.67 436.4 1217.33 438.667C1216.13 440.667 1213.33 439.333 1213.33 436.667C1213.33 435.733 1214.13 434.667 1215.2 434.267C1216.8 433.6 1217.07 430.133 1216.93 416.533L1216.67 399.6L1220.27 398.4C1222.27 397.733 1224.27 396.133 1224.67 394.8C1225.07 393.467 1228.67 389.733 1232.53 386.267C1236.53 382.8 1240.27 378.8 1240.67 377.333C1241.2 375.867 1243.33 373.733 1245.47 372.667C1248.13 371.2 1249.33 369.6 1249.33 367.467C1249.33 362.933 1251.6 361.733 1260.67 361.6C1266.93 361.6 1269.07 360.933 1270.8 358.8C1273.33 355.733 1274.93 356.8 1276.67 362.667C1278.27 368.267 1283.87 374.667 1286.13 373.733C1287.87 373.067 1288.13 373.467 1287.33 375.867C1286.67 378.133 1287.33 379.467 1289.87 381.467C1292.8 383.867 1293.33 385.2 1293.33 391.467C1293.33 398 1293.6 398.667 1296.8 399.467C1299.07 400.133 1301.07 399.6 1303.07 397.733C1310.8 391.067 1310.13 390.667 1314.53 404.933C1319.73 421.867 1321.47 429.6 1320.27 431.333C1319.73 432 1319.33 436.533 1319.33 441.333C1319.33 448.8 1319.6 450 1321.6 449.6C1325.2 449.067 1334.67 464.667 1333.73 469.6C1332.8 474.4 1338.27 482.667 1344.8 486.133C1347.33 487.6 1350.4 490 1351.47 491.6C1356.13 498.8 1357.73 492.533 1353.33 484C1351.87 481.067 1350.67 476.667 1350.67 474.133C1350.67 468.933 1343.47 459.333 1335.47 453.867C1332.27 451.6 1330.67 449.6 1330.67 447.333C1330.67 445.6 1329.07 442.267 1327.2 440L1323.6 435.867L1325.73 428.267C1326.93 424.133 1328.13 419.2 1328.27 417.333C1328.8 412.533 1332.8 412.933 1332.4 417.733C1332.13 420.933 1332.53 421.333 1334.93 420.667C1336.93 420 1339.07 421.2 1343.47 425.6C1346.67 428.667 1349.33 432 1349.33 432.933C1349.33 433.733 1350.67 434.667 1352.4 434.933C1354.67 435.2 1355.33 436.267 1355.6 439.733C1355.73 442.267 1356 444.4 1356.27 444.8C1357.33 445.733 1366.67 437.2 1366.67 435.2C1366.67 434.267 1368.13 433.067 1369.87 432.533C1371.6 432.133 1374.67 430 1376.67 428C1380 424.4 1380.27 423.467 1379.6 416.933C1378.67 407.2 1376.67 403.733 1364.67 390.667C1358.13 383.6 1354.67 378.667 1354.67 376.667C1354.67 371.867 1364.93 362.667 1370.27 362.667C1373.87 362.667 1374.53 363.2 1374.93 366.267C1375.47 371.067 1380 372.267 1380 367.733C1380 364.4 1385.47 360.933 1388.8 362.267C1389.87 362.667 1391.73 362.133 1393.07 361.2C1395.07 359.467 1399.87 357.067 1407.33 353.867C1413.6 351.2 1422.4 339.467 1425.87 329.333C1430 317.067 1431.87 303.867 1429.2 306.267C1426.8 308.667 1423.47 308.4 1424.53 306C1424.93 304.933 1425.73 303.067 1426.13 302C1426.67 300.667 1426.13 300 1424.67 300C1423.2 300 1422.67 299.333 1423.2 298C1424.13 295.467 1413.47 282.933 1406.8 278.533L1403.6 276.533L1407.87 270.267C1410.53 266.4 1413.07 264 1414.67 264C1416.13 264 1417.33 263.2 1417.33 262.133C1417.33 259.467 1407.07 258.8 1402.53 261.2C1399.33 262.8 1398.8 262.667 1395.6 259.467C1393.73 257.6 1391.2 256 1390 256C1386.67 256 1387.73 253.867 1394.67 246.667C1401.07 240 1404.93 238.933 1403.6 244.133C1402.93 246.8 1405.33 253.333 1406.93 253.333C1407.47 253.333 1408.53 252.267 1409.2 250.8C1410.93 247.6 1416.13 246.267 1420.53 248C1423.33 249.067 1424 250.133 1424 253.867C1424 258.267 1424.27 258.4 1430.67 260C1436.53 261.333 1437.33 262 1436.53 264.267C1436 266 1436.53 267.467 1438.13 268.533C1439.6 269.6 1440.4 272 1440.4 274.8C1440.4 281.733 1442 282.933 1447.73 280.533C1450.4 279.467 1453.6 277.6 1454.8 276.533C1456.93 274.533 1456.93 274 1454.27 267.733C1452.13 262.533 1450 260 1443.87 255.867C1439.6 253.067 1435.87 250.133 1435.47 249.6C1435.07 248.933 1436.27 246.933 1438 245.333C1440.4 243.067 1441.33 240.8 1441.33 237.067C1441.33 231.467 1445.47 225.867 1448.8 227.2C1449.87 227.6 1451.47 228.4 1452.53 228.8C1455.73 230 1461.07 223.733 1463.2 215.733C1464.4 211.6 1465.33 204.133 1465.33 199.067C1465.33 190.667 1464.8 188.8 1459.6 179.2C1451.07 163.467 1450.53 162.8 1444.13 159.867C1437.2 156.8 1433.87 156.667 1432.8 159.333C1431.6 162.533 1430.13 161.733 1426.8 156.267C1423.87 151.467 1423.87 151.467 1424.67 155.333C1425.47 159.067 1425.47 159.2 1422.93 156.933C1421.6 155.733 1419.47 154.667 1418.27 154.667C1414.8 154.667 1414.27 152.267 1417.07 148.667C1418.53 146.8 1420.13 143.067 1420.53 140.4C1422.4 130.133 1423.6 128.4 1430.27 127.467C1440.93 126 1464 126.533 1464 128.133C1464 129.2 1466.27 129.467 1471.47 128.933C1478.8 128.133 1482.13 126.8 1479.2 125.733C1474.27 124 1473.33 122.133 1474.93 116.933C1476.27 112.4 1476.93 112 1481.2 112C1484.67 112 1487.07 113.067 1490.27 116.267L1494.67 120.533L1497.87 117.467C1500.53 114.933 1500.93 114 1499.6 111.867C1498 109.2 1498.93 107.2 1501.2 108.667C1502 109.067 1503.6 111.2 1504.67 113.333C1506.4 116.667 1506.4 117.733 1504.67 122.667C1503.6 125.867 1502.67 129.467 1502.67 130.8C1502.67 132.133 1501.6 134 1500.27 134.8C1498 136.267 1497.87 136.8 1499.6 141.867C1500.8 145.067 1503.73 149.067 1507.07 152C1510.13 154.533 1517.6 161.333 1523.73 167.067C1529.87 172.8 1535.33 177.067 1536.13 176.667C1537.87 175.467 1537.6 168.4 1535.73 167.2C1534.67 166.533 1535.07 165.733 1536.67 164.533C1538.93 162.8 1538.93 162.533 1536.93 160.267C1534.4 157.6 1536 153.6 1538.8 155.467C1539.87 156 1539.07 154.533 1537.07 152.133C1532.93 147.333 1532.27 145.067 1535.33 146.133C1539.47 147.733 1537.2 144.4 1532.67 142.267C1530.13 141.067 1528 139.2 1528 138C1528 136.933 1526.4 135.733 1524.4 135.2C1517.87 133.867 1517.2 133.333 1517.6 130.933C1517.87 129.467 1517.2 127.467 1516.27 126.4C1514.93 124.667 1515.2 124.133 1518.8 122.667C1522.13 121.2 1523.47 121.2 1525.6 122.533C1527.87 123.867 1528.67 123.733 1530.8 121.867C1533.2 119.733 1533.73 119.733 1538.67 121.733C1542.27 123.067 1544 123.333 1544 122.267C1544 119.2 1551.07 110.8 1554.93 109.2C1558 108 1560 107.867 1562.8 108.933C1569.47 111.467 1568.53 108.133 1561.73 105.333C1558.27 103.867 1553.47 101.6 1551.07 100.4C1546.93 98.2667 1546.93 98.1334 1549.47 96.2667C1551.07 95.2 1551.87 93.6 1551.47 92.4C1550.8 90.6667 1551.73 90.5333 1557.6 91.3333C1561.47 91.8667 1566.53 93.4667 1568.93 94.8C1573.87 97.8667 1586.67 99.8667 1586.67 97.6C1586.67 96.8 1585.6 95.4667 1584.4 94.8C1582.27 93.6 1582.27 93.2 1584 92C1587.33 89.7333 1582.67 87.3333 1571.73 85.4667C1566.4 84.6667 1550.67 80.9333 1536.67 77.3333C1522.8 73.7333 1503.87 69.8667 1494.67 68.6667C1485.47 67.4667 1476.93 66.2667 1475.47 66C1473.47 65.6 1473.73 66.2667 1476.8 69.4667L1480.67 73.6L1477.33 72.8C1463.73 70 1458.13 69.3333 1445.47 69.3333C1433.07 69.3333 1430.8 68.9333 1428.8 66.8C1425.73 63.4667 1422.67 62.9333 1399.33 61.4667C1387.87 60.6667 1377.33 59.3333 1374.67 58.2667C1369.47 56.1334 1333.73 52.5333 1332.27 54C1331.73 54.4 1332.8 56 1334.67 57.4667L1338 60.2667L1325.6 59.3333C1318.8 58.9333 1312.4 58.2667 1311.33 57.8667C1309.87 57.2 1309.33 58 1309.33 60.5333C1309.33 62.4 1309.07 64 1308.8 64C1306.67 64 1294.67 57.7333 1292 55.2C1288.67 52.1334 1273.6 48 1265.73 48C1262.93 48 1262.53 48.2667 1264 50C1265.47 51.7333 1264.4 52 1256.27 52C1251.07 52 1246.4 51.3333 1246 50.6667C1245.6 49.8666 1240.93 49.3333 1235.73 49.3333C1228.53 49.3333 1225.6 48.6667 1222.67 46.6667C1218.93 44 1216 44.1334 1212 47.3333C1210 48.9333 1201.33 51.2 1201.33 50C1201.33 49.7333 1204.4 47.8666 1208 45.8666C1214.53 42.2667 1215.6 40.8 1213.6 38C1212 35.7333 1200.4 33.3333 1190.8 33.3333C1183.87 33.3333 1181.47 32.8 1180.8 31.3333C1180 29.2 1169.2 28.6667 1162.67 30.5333ZM892 92.4C892 93.2 888.4 96.4 884 99.3333L876.133 104.667L876.267 112.267C876.4 123.733 878.133 124.933 892.933 122.667C910 120.133 914.133 120.533 910.8 124.533C909.733 125.867 906.667 126.4 900.933 126.4C896.4 126.267 891.2 126.933 889.467 128L886.133 129.733L889.2 132.133C891.467 134 892.133 135.467 891.467 138C890.533 141.867 889.067 142.267 886.667 139.333C885.733 138.267 884 137.333 882.667 137.333C878.667 137.333 876.933 140.8 877.867 146.667C878.667 151.733 878.533 152 873.467 154.667C868.267 157.2 868.133 157.2 866.4 154.8C864.667 152.267 864.4 152.4 857.333 155.467C848.667 159.2 845.867 159.333 844.267 156.533C843.2 154.533 842.667 154.533 838.8 156.667C833.6 159.333 832.267 158.667 836 155.333C837.467 154 838.667 152.133 838.667 151.2C838.667 149.2 846 150 849.067 152.4C850.133 153.2 850.667 153.2 850.667 152.267C850.667 151.467 850 150.4 849.333 150C847.2 148.667 849.2 146.667 852.8 146.667C856.4 146.667 858.933 142.133 857.867 137.867C857.2 134.8 858.133 133.333 863.733 129.467C866 127.867 868 126.133 868 125.6C868 125.067 866.133 123.6 864 122.4C856 117.867 860.533 106.533 872.4 101.6C874.4 100.8 876 99.3333 876 98.2667C876 97.3333 876.933 95.2 878.133 93.6C879.733 91.3333 881.467 90.6667 886.133 90.6667C890 90.6667 892 91.2 892 92.4ZM966.533 206C964.933 208.533 963.2 210.667 962.533 210.667C959.333 210.667 962.133 213.6 969.067 217.467C977.067 222 988 231.467 988 234.133C988 234.933 986.933 236.533 985.733 237.6C982.533 240.4 966.667 238.8 959.2 234.933C954 232.267 953.333 232.267 945.333 234.133C940.667 235.2 936.133 236.667 935.2 237.467C932.933 239.333 924.8 237.6 920.933 234.533C918.533 232.667 917.867 231.2 918.4 228.133C918.667 225.867 919.467 224 920 224C920.667 224 921.467 222.267 922 220.133C922.4 218 923.733 215.867 924.8 215.467C925.867 215.067 926.667 214 926.667 212.933C926.667 212 928 209.867 929.733 208.267C932.133 206 933.733 205.6 937.733 206.267C942.667 207.067 943.867 208.4 941.333 210C940.4 210.533 941.333 212.267 943.467 214.267C946.267 216.933 947.6 217.333 949.867 216.267C951.467 215.6 954.133 214.4 956 213.6C958.267 212.667 958.533 212.133 957.067 212.133C951.2 211.867 953.733 204.8 960.4 202.8C968.8 200.4 969.6 200.8 966.533 206ZM1036.53 203.333C1041.33 205.333 1042.53 208.133 1040.13 211.867C1039.47 212.8 1038.4 213.333 1037.6 212.8C1035.6 211.6 1032 213.333 1032 215.333C1032 216.267 1031.33 217.333 1030.53 217.6C1029.73 217.867 1032.4 221.067 1036.53 224.667C1041.6 229.067 1044 232.133 1044 234.267C1044 237.867 1045.07 238.133 1047.47 234.933C1049.2 232.8 1049.47 232.8 1052 235.867C1055.6 240.133 1055.33 241.333 1050.8 241.333C1044.93 241.333 1044.67 243.467 1049.73 248.267C1053.33 251.733 1054.53 254.133 1055.07 258.933L1055.87 265.067L1049.47 266C1043.07 266.8 1037.33 265.333 1037.33 262.667C1037.33 262 1035.73 261.333 1033.87 261.067C1028.8 260.533 1026.8 256.8 1029.73 253.6C1030.93 252.267 1032 249.867 1032 248.4C1032 246.8 1032.8 245.333 1033.73 244.933C1034.67 244.667 1031.6 240.933 1026.4 236.133C1019.2 229.467 1017.33 226.933 1017.33 223.867C1017.33 221.333 1016.67 220 1015.33 220C1014.27 220 1013.33 218.933 1013.33 217.733C1013.33 215.2 1018.4 209.333 1020.53 209.333C1021.33 209.2 1024.13 207.467 1026.67 205.333C1029.2 203.067 1031.33 201.333 1031.47 201.333C1031.6 201.333 1033.87 202.267 1036.53 203.333ZM855.2 223.2C857.467 224.933 863.067 228.533 867.733 231.333C875.333 235.733 876 236.533 876 240.8C876 246.933 879.067 252.8 883.6 254.933C885.867 256 887.6 258.267 888.267 260.933C888.933 263.333 890 265.333 890.533 265.333C891.2 265.333 892.667 265.733 893.867 266.133C895.333 266.667 896 266.267 896 264.8C896 263.733 897.467 261.733 899.333 260.533C903.6 257.733 903.467 256.933 898.667 252C896.533 249.733 894.667 247.067 894.667 246C894.667 243.6 896.267 243.467 898.4 245.6C899.467 246.667 900.533 246.4 902.4 244C906.267 239.2 909.733 241.333 912.4 250.4C916.133 262.267 917.733 265.333 920.533 265.333C921.867 265.333 925.333 266.667 928.267 268.267C933.2 271.067 933.6 271.067 934.8 268.933C936.4 266.133 940 266 943.467 268.667C944.8 269.733 947.2 270.533 948.667 270.533C950.133 270.533 952.533 269.733 953.867 268.667C955.333 267.6 958.133 266.667 960.267 266.667C963.467 266.667 964 267.2 964.267 270.267C964.667 277.733 963.733 282.133 960.4 289.733C955.867 299.867 953.733 301.2 943.867 300.4C939.067 299.867 933.867 300.267 930.8 301.333C926 302.8 924.8 302.533 908.267 296.133C891.467 289.467 890.667 289.333 886.267 291.067C880.133 293.733 876.933 298.133 878.933 301.733C881.067 305.867 875.333 308.667 872.133 304.8C871.333 303.867 867.867 302.667 864.4 302.267C860.533 301.867 857.467 300.667 856.133 299.067C852.4 294.4 845.733 290.667 841.067 290.667C838.267 290.533 835.2 289.2 832.267 286.8C828 283.2 828 283.067 829.867 278.533C832.267 272.8 830.267 264.667 826 263.333C822.4 262.133 813.867 262.533 807.333 264.267C804.4 264.933 796.4 266.133 789.6 266.8C776.533 268 773.467 269.067 768 274C764.933 276.8 763.733 277.067 755.6 276.4C747.333 275.733 746.533 275.333 746.933 272.8C747.333 269.733 751.467 267.333 759.6 265.333C765.6 263.867 776.8 254.4 775.333 252C773.733 249.333 780.533 239.733 786 237.067C792.133 233.867 793.6 232.267 792.533 229.067C791.467 225.6 798 223.333 803.867 225.2C807.867 226.4 809.067 226.133 814.133 222.667C821.867 217.2 824.667 217.467 827.867 223.867C831.067 230 836.933 235.2 844.933 238.933C850.267 241.467 857.333 248.133 857.333 250.533C857.333 251.2 856.133 253.2 854.533 255.067C852.133 258.133 851.2 258.533 846.133 257.867C837.2 256.533 837.2 259.467 846.133 263.333C850.267 265.2 853.867 266.667 854.133 266.667C854.4 266.667 854.667 264.8 854.667 262.667C854.667 259.733 855.333 258.667 857.067 258.667C858.4 258.667 860.533 256.933 861.733 254.667C863.6 251.467 863.867 250.133 862.667 247.867C860.4 243.867 862.8 241.733 867.333 243.733C870.133 245.067 870.667 244.933 870.667 243.2C870.667 242.133 867.867 240 864.4 238.533C860.8 237.067 857.467 234.933 856.933 233.867C856.4 232.8 854.8 232 853.467 232C851.067 232 846.4 227.467 841.6 220.4C838.133 215.467 838 213.6 840.8 210.533C842.933 208.133 843.2 208.4 847.067 214.133C849.2 217.467 852.933 221.467 855.2 223.2Z" fill="#E6E6E6"/>
<path d="M315.2 45.0667C314.4 45.6 313.466 46.9333 313.066 48.1333C312.533 49.3333 308.266 51.7333 303.6 53.4667L294.8 56.6667L297.333 60C299.6 63.0667 300 63.0667 306.666 61.6C310.533 60.6667 315.066 58.8 316.933 57.3333C322.4 53.0667 322.8 54.1333 318.666 61.8667C316.4 65.8667 314.666 69.4667 314.666 70C314.666 70.4 316.533 71.4667 318.666 72.1333C320.933 72.9333 322.666 74.4 322.666 75.4667C322.666 77.8667 325.733 77.8667 330.4 75.4667C337.466 72 355.733 70.6667 364.8 73.2C368.133 74.1333 369.866 73.7333 373.2 71.7333C378 68.6667 378 68.8 375.2 64.8C373.866 62.6667 373.6 61.3333 374.533 60.6667C375.333 60.2667 376 57.4667 376 54.4C376 49.3333 375.866 49.0667 372.533 49.8667C370.666 50.4 367.733 52.4 366 54.4C363.066 57.7333 362.8 57.8667 360.4 55.7333C359.066 54.5333 354.933 53.0667 351.2 52.6667C345.6 51.8667 344 51.0667 342.133 47.8667C339.866 44.1333 339.6 44 328.266 44C321.866 44 316 44.5333 315.2 45.0667Z" fill="#E6E6E6"/>
<path d="M398.267 47.6C397.733 48 397.333 49.6 397.333 50.9333C397.333 53.6 395.867 54 393.733 51.8666C392.933 51.0666 391.6 50.8 390.8 51.3333C389.867 51.8666 390.8 53.6 393.333 56.1333C397.6 60.5333 399.067 60.5333 408.133 55.8666C411.333 54.2666 413.2 52.2666 413.6 50C414.267 46.8 414.133 46.6666 406.667 46.6666C402.533 46.6666 398.667 47.0666 398.267 47.6Z" fill="#E6E6E6"/>
<path d="M419.466 50.6666C417.733 52.9333 412.4 57.2 407.866 60.1333C403.333 63.2 399.333 66.8 398.933 68.2667C398.4 70.4 397.466 70.8 394 70.1333C388.266 69.0667 380 72.5333 380 76C380 78.4 379.066 78.6666 371.733 78.8C359.2 79.0667 356.933 78.6666 353.866 75.8666C351.333 73.4666 350.533 73.3333 344.8 74.9333C341.466 75.8666 338.666 77.3333 338.666 78.2667C338.666 79.6 335.333 80 325.066 79.8666C314.133 79.8666 312 79.4666 314.4 78.4C320.133 75.6 319.066 74.9333 299.866 70.6666C295.6 69.7333 290.666 69.3333 288.8 69.8666C286.266 70.5333 285.333 70.2667 285.333 68.6666C285.333 67.0667 284.666 66.9333 281.733 68.1333C278.8 69.2 277.733 69.0667 276.4 67.2C275.333 65.7333 274 65.3333 272.4 66C266.8 68.2667 249.733 71.3333 246.666 70.6666C244.8 70.2667 241.2 70.6666 238.666 71.6C232.266 73.8666 227.2 73.7333 223.2 71.2C221.066 69.7333 215.066 68.6666 205.6 67.8666C187.2 66.5333 170.4 63.6 167.333 61.3333C165.6 60 146.666 64 130.666 69.0667C123.733 71.3333 115.866 73.4666 113.333 74C104.666 75.6 103.866 76.1333 104.666 78.8C105.066 80.1333 105.733 82.5333 106.133 84C106.666 86.2667 106.266 86.6666 102.8 86.6666C100.533 86.6666 98.6664 86.1333 98.6664 85.4666C98.6664 84.8 93.7331 85.4666 87.7331 87.2C79.3331 89.4666 76.6664 90.8 75.8664 93.0667C74.9331 95.4666 75.3331 96.1333 77.9998 96.8C79.8664 97.2 83.7331 97.3333 86.6664 97.0667C90.7998 96.6666 91.8664 97.0667 91.3331 98.4C90.9331 99.4666 90.6664 100.667 90.6664 101.333C90.6664 101.867 87.8664 102.667 84.3998 103.067C67.3331 104.8 53.7331 110.533 48.9331 117.867C45.3331 123.333 45.9998 125.467 50.7998 124.4L54.9331 123.6L52.6664 127.2C50.5331 130.267 50.5331 130.667 52.5331 129.867C55.1998 128.8 63.9998 130.4 63.9998 131.867C63.9998 132.933 11.9998 153.333 9.06644 153.333C8.13311 153.467 5.86644 154.267 3.99977 155.333C0.666439 157.2 0.666439 157.2 5.33311 156.533C21.1998 154 48.3998 146.133 57.8664 141.333C63.5998 138.4 69.7331 136 71.3331 136C75.4664 136 86.9331 132.267 89.8664 130C91.9998 128.4 92.1331 127.733 90.6664 126C89.1998 124.267 89.4664 124 92.5331 124C94.3998 124 99.0664 122.8 102.933 121.333C106.666 119.867 110 118.933 110.266 119.2C110.533 119.467 108.266 121.2 105.333 123.2C102.4 125.067 99.9998 126.933 99.9998 127.2C99.9998 128.133 117.066 124 123.466 121.6C129.866 119.067 130.266 119.067 134.666 121.333C137.2 122.667 142.4 124.133 146.266 124.667C156.133 126 157.866 129.067 156.933 142.933L156.266 153.333H160.8C165.066 153.333 165.2 153.467 163.866 156.933C162.933 159.2 162.8 164.267 163.333 169.867L164.133 179.067L160.8 178.133C155.6 176.8 155.733 181.2 161.066 186.933C164.666 190.667 165.466 192.267 164.266 193.6C163.6 194.533 161.6 198.667 160 202.667C158.4 206.667 153.866 213.6 150 218.133C146 222.533 142.4 228 141.866 230.133C141.333 232.267 139.466 236.133 137.466 238.667C133.466 244.133 133.2 247.733 135.066 265.733L136.533 278.933L142.133 282.8C148.533 287.2 148.8 287.733 150.133 300.667C150.666 305.733 151.866 311.867 152.933 314.4C154.666 318.533 154.533 319.067 152.533 320.667C150.533 322.133 150.533 322.667 152.133 324.933C153.2 326.4 155.866 329.2 158.133 331.067C161.333 333.733 162.133 335.467 161.733 337.867C161.2 340.267 162.266 342.667 165.2 346.267C167.466 349.067 169.333 352 169.333 352.933C169.333 353.867 170 354.667 170.666 354.667C173.466 354.667 173.6 350.267 171.066 344.8C169.6 341.867 168 337.467 167.466 335.067C166.933 332.8 164.533 325.733 162 319.467C158.666 310.933 157.733 306.8 158.266 303.333C158.666 300.8 159.2 298.667 159.466 298.667C159.6 298.667 161.333 299.2 163.066 299.867C165.733 300.933 166.4 302.267 167.066 308.133C167.733 312.933 169.333 317.333 172.666 322.267C175.466 326.4 177.333 330.933 177.333 333.333C177.333 336.4 179.333 339.733 185.333 346.8C191.866 354.4 193.333 356.933 193.333 360.8C193.333 363.333 192.8 366.533 192.133 367.733C191.466 368.933 191.466 371.2 192 372.8C193.333 376.133 205.333 385.333 208.4 385.333C209.6 385.333 211.066 386.133 211.6 387.2C213.2 389.867 231.6 398.8 235.733 398.933C237.733 398.933 241.6 398.533 244.4 398C249.2 397.067 249.733 397.2 255.866 403.6C262.133 410.133 263.6 410.8 279.733 415.067C283.733 416.133 285.6 417.467 286.133 419.6C286.533 421.2 288 423.467 289.466 424.8C290.8 426 292 428.533 292 430.267C292 434.4 305.6 447.2 310.4 447.6C312.266 447.733 315.066 449.2 316.8 450.8C320.4 454.267 324.666 453.333 323.6 449.333C322.8 446.267 327.066 442 330 443.2C331.066 443.6 332.4 445.067 332.8 446.267C333.2 447.6 334.4 450.267 335.466 452.267C337.733 456.533 338 474.933 335.733 479.067C334.933 480.667 333.2 482.8 331.733 483.733C330.4 484.667 329.333 486.667 329.333 488.133C329.333 489.6 328 491.333 326.4 492.133C322.133 494 316.8 507.867 318.533 512.4C319.2 514.267 320.533 516.133 321.2 516.667C322.133 517.2 321.466 519.067 319.2 522C316 526.133 316 526.8 317.466 532.267C318.4 535.467 320.8 539.733 322.8 542C324.8 544.133 328 549.333 330 553.333C332 557.333 335.333 563.067 337.333 566C339.333 568.933 343.733 576.8 347.066 583.6C353.2 595.733 353.333 595.867 367.6 606C375.466 611.733 382.266 616.533 382.4 616.8C382.666 616.933 384 623.6 385.466 631.6C387.066 641.467 387.866 652.667 388 667.067C388 682.533 388.533 690.133 390.266 696.133C392.133 703.067 392.266 706.4 391.066 721.067C389.866 736.133 390 738.533 392 742.667C393.2 745.2 394.666 750.667 395.2 754.667C396.4 765.467 398.533 772 400.8 772C402.133 772 402.533 771.067 401.866 768.667C401.333 766.8 401.6 765.333 402.4 765.333C403.2 765.333 404.4 768.4 405.2 772C407.066 780.533 407.066 780.4 404.8 779.6C402 778.533 399.2 782.133 401.066 784.4C402 785.467 402.266 788.267 401.733 791.067C401.2 794.933 401.466 796 402.933 796C406.266 796 408.4 799.467 406.8 802.4C405.733 804.533 406.8 806.933 412.8 815.733C416.933 821.733 424 830 428.533 834.4C436.4 841.6 437.6 842.4 450 845.6L463.066 848.933L467.6 846.4C470 844.933 472 843.333 472 842.8C472 842.267 468.666 840.8 464.8 839.467C459.2 837.867 456.133 835.733 451.866 830.933C444.933 823.067 443.733 820 446.133 817.2C447.2 816 447.733 814.133 447.2 812.933C446.8 811.733 447.733 808.533 449.466 805.733C451.466 802.533 452 800.667 450.933 800.267C450.133 800 448 798.667 446.133 797.2C442.133 794 441.2 785.867 444.666 784.533C446 784 446.666 781.867 446.666 778.667C446.666 775.867 447.6 772.933 448.666 772C451.466 769.733 451.2 768 448.133 768C445.466 768 441.333 763.333 441.333 760.4C441.333 759.333 443.066 758.8 446 758.933C451.733 759.2 455.066 756.533 454.133 752.533C452.8 747.6 454.533 745.333 459.333 745.333C467.866 745.333 472 743.733 474 739.867C476.933 734.267 476.533 727.067 473.333 725.333C471.866 724.533 470.266 722.4 469.866 720.667C469.466 718.8 468.133 717.333 466.933 717.333C465.333 717.333 465.2 716.933 466.4 715.733C467.6 714.533 468.533 714.8 470.533 716.533C472 717.867 475.6 719.2 478.666 719.6C483.066 720.267 484.666 719.867 487.333 717.333C490.666 714.133 497.333 699.2 497.333 694.667C497.333 692.933 498.266 692 499.866 692C504.666 692 508.666 683.2 508.933 672C509.066 666.533 509.2 661.6 509.2 661.2C509.466 659.333 528.266 647.867 534.533 645.733C545.2 642.4 549.6 635.6 552.666 618.133C554 610.667 555.2 600.133 555.333 594.533C555.6 584.8 555.866 584 561.6 575.867C564.933 571.2 569.866 562.667 572.4 556.933C577.2 546.667 577.2 546.667 575.066 540.667C573.466 535.867 572.133 534.133 568.533 532.667C566 531.6 560.4 527.6 556.133 523.867L548.4 516.8L537.2 516.533C531.066 516.267 524.933 516 523.733 516C522.266 515.867 521.333 514.8 521.333 512.933C521.2 510.667 519.466 509.2 513.066 506.267C505.733 502.933 504.666 502.8 502.666 504.667C499.6 507.467 498.666 507.2 498.666 503.6C498.666 501.733 497.2 499.867 494.666 498.4C491.333 496.533 490.8 495.467 491.466 492.8C492 490.533 491.466 489.067 489.6 487.733C488.133 486.8 486.533 483.6 486 480.667C484.666 473.733 484.4 473.2 477.6 467.467C472.533 463.333 470.8 462.667 464.933 462.667C456.266 462.667 444.666 456.933 442.8 452C442.133 450 439.466 447.6 436.4 446C433.466 444.533 430.533 442.267 429.866 440.667C429.2 439.2 427.066 437.2 425.066 436.267C421.066 434.4 420.4 432.667 423.066 431.467C423.866 431.067 421.733 431.067 418 431.467C414.4 431.867 410.933 432.8 410.533 433.467C410.133 434.267 407.733 433.867 404.933 432.667C402.266 431.6 398 430.667 395.333 430.667C389.733 430.667 383.333 427.733 382.133 424.533C381.466 422.667 380.533 423.2 376.666 427.467C374.133 430.267 372.133 434.133 372 435.867C372 438.533 371.733 438.8 370 437.333C368.533 436.133 368.266 435.2 369.333 434.133C370 433.467 370.666 431.2 370.666 429.067C370.666 427.067 371.6 424.933 372.666 424.4C373.733 423.733 374.133 422.533 373.6 421.733C372.8 420.533 370.933 421.2 366.666 424C363.466 426.133 358.933 428.267 356.666 428.8C352.266 429.733 349.466 432.667 349.333 436.267C349.333 437.6 347.6 440.533 345.6 442.933L341.733 447.067L336.933 443.2C333.066 440.267 330.933 439.467 327.066 439.867C324.266 440 320.933 440.8 319.466 441.6C314 444.533 305.333 435.2 305.333 426.533C305.333 424 306.266 417.867 307.6 412.8L309.733 403.733L306.533 401.2C304 399.2 300.933 398.667 291.733 398.667H280.133L283.6 390.267C285.466 385.733 288.133 378.667 289.6 374.667C291.2 370.667 292.933 366.667 293.466 365.867C294.266 364.8 292.8 364.133 288.533 363.467C280.133 362.4 275.466 364.933 273.066 372.267C271.2 377.867 270.933 378 261.466 380.533C250.266 383.467 247.2 382.533 242.266 374.8C236.4 365.467 236 360.667 240.266 348.133C242.266 341.867 244 334.667 244 331.867C244 327.2 244.533 326.667 256.4 318.8C266.533 312.133 269.733 310.667 274.266 310.667C277.333 310.667 280.266 311.2 280.666 312C282.133 314.267 287.066 313.467 290.266 310.4C294.266 306.667 310.266 305.6 311.6 308.933C312.133 310.4 313.6 310.667 316.666 310.133C320 309.467 321.466 310 324 312.667C326.666 315.6 327.066 316.667 325.866 319.733C324.266 323.733 325.6 330.533 328.933 335.467C334.266 343.733 338 334.8 336.666 316.8L335.866 304.667L342.266 297.733C345.733 293.867 352.933 288.133 358 284.8C363.2 281.467 369.6 276.533 372.4 273.733C376.666 269.467 377.333 268 376.8 264.267C376.4 261.2 376.666 260 378.133 260C379.2 260 381.066 258 382.266 255.467C383.466 252.933 385.066 251.2 386 251.467C386.933 251.867 389.466 249.867 391.733 247.067C394.666 243.2 397.733 241.333 403.066 239.6C406.933 238.4 411.2 237.333 412.266 237.333C415.066 237.333 417.866 233.867 416.133 232.667C414 231.467 420 222.933 424 221.467C425.866 220.8 432.4 218.4 438.666 216.133C449.733 212.133 449.866 212.133 446.133 215.2C440.933 219.467 442.133 223.067 448 221.333C450.4 220.667 452.933 219.467 453.866 218.8C454.666 218.133 458.133 216.8 461.6 216C465.066 215.067 468.8 213.2 470.133 211.867C471.333 210.533 473.466 209.333 474.933 209.333C476.666 209.333 477.333 208.4 477.333 206C477.333 204 476.533 202.667 475.466 202.667C474.4 202.667 472.4 204.133 470.933 206C467.333 210.533 459.6 210.667 456.666 206.267C454.8 203.333 454.933 202.667 458.133 196.8C461.066 191.467 461.333 190.133 459.866 189.2C456.8 187.2 453.733 187.867 444.266 192L435.333 196L440 192C442.533 189.733 445.466 188 446.533 188C447.6 188 449.6 186.933 451.066 185.6C453.066 183.733 457.066 183.2 471.2 182.533C487.466 181.867 489.2 181.467 497.066 177.6C501.6 175.2 505.333 173.733 505.333 174.4C505.333 174.933 500.8 179.867 495.333 185.333C489.866 190.8 485.333 195.733 485.333 196.267C485.333 196.933 489.2 197.333 493.866 197.333C498.666 197.333 502.933 198 503.333 198.8C503.866 199.6 505.066 199.867 506.133 199.467C507.066 199.067 508.533 199.733 509.2 200.933C510.266 202.933 510.666 202.933 513.866 200.933C516.666 199.067 517.066 198.133 516 195.467C515.333 193.733 515.2 191.067 515.6 189.467C516.133 187.067 515.733 186.667 512.533 186.667C507.733 186.667 504.4 181.067 507.466 178.533C508.533 177.733 508.933 176.533 508.533 175.867C508.133 175.2 509.066 172.933 510.533 170.8C513.2 167.2 513.2 166.667 511.2 160.8C510 157.333 507.866 154 506.133 153.2C504.666 152.4 501.733 150.133 499.733 148.267C496.933 145.733 496.4 144.4 497.466 142.533C498.8 139.867 496.4 121.333 494.533 121.333C494 121.333 491.866 122.8 489.733 124.533C487.733 126.267 483.466 128.933 480.533 130.4C475.066 133.2 474.933 133.2 472.266 130.667C469.2 127.867 469.6 123.067 473.066 120.4C474.8 118.933 474.533 118.533 471.6 117.467C469.6 116.667 466.266 114.133 464.133 111.733C461.333 108.667 459.733 107.733 458.8 108.8C457.866 109.6 454.4 109.867 449.866 109.333C442.533 108.533 442.4 108.533 439.2 113.2C437.466 115.867 436 118.933 436 120C436 121.2 433.6 124.533 430.666 127.333C426.266 131.6 425.733 132.8 427.333 133.733C429.733 135.067 429.866 137.333 427.866 141.733C426.266 145.2 414.4 152.8 409.333 153.6C406.533 154 405.733 155.067 404.133 162.133C402.533 169.2 401.733 170.533 397.333 173.067L392.266 175.867L391.466 172.8C391.066 171.067 390.266 168.667 389.866 167.467C389.333 165.867 389.6 165.467 391.066 166.133C392.133 166.533 393.466 166.267 394 165.467C394.4 164.667 393.866 164 392.8 164C390 164 390.133 161.6 393.333 156.267L396 152H391.6C389.333 151.867 384.933 150.8 382 149.333C379.066 147.867 375.866 146.8 375.066 146.667C374.133 146.667 373.333 146.133 373.333 145.333C373.333 143.067 366.666 139.6 362.533 139.733C358.933 139.867 358.666 139.467 358.666 134.533C358.666 130.533 358.133 129.333 356.4 129.333C351.466 129.333 363.733 119.6 377.466 112.667C385.2 108.8 392.266 104.667 393.2 103.467C394.266 102.267 396.133 101.333 397.333 101.333C400.8 101.333 412 96.4 416.933 92.5333C419.2 90.8 421.6 89.3333 422.133 89.3333C423.866 89.3333 414.266 98.8 411.333 100C409.2 100.933 409.066 101.2 410.933 101.2C412.133 101.333 413.333 102.267 413.6 103.333C414 105.067 414.8 104.933 419.2 102.533C423.466 100.267 425.066 100 427.6 101.2C432 103.2 436 103.067 436 100.8C436 99.8666 433.333 96.8 430 94.1333C423.333 88.6666 422.133 85.8666 427.333 88.2667C429.866 89.4666 431.066 89.4666 432.266 88.2667C433.2 87.3333 435.066 86.6666 436.666 86.6666C440.266 86.6666 448 81.8666 448 79.6C448 78.5333 449.2 76.6666 450.666 75.3333C452.533 73.6 452.933 72.4 452 71.4666C449.2 68.6666 450.933 68 461.733 68C470.533 68.1333 473.2 68.5333 475.733 70.6666C479.466 73.8666 478.533 76 473.333 76C469.333 76 464.8 79.3333 466 81.4666C467.333 83.4666 472.4 82.8 475.2 80.1333C479.333 76.2667 483.2 76 483.733 79.6C484.133 82 482.933 83.2 478.133 85.6C474 87.6 472 89.3333 472 91.0667C472 93.4666 471.333 93.6 464 92.9333C457.733 92.4 455.333 92.6666 453.2 94.5333C450.8 96.5333 450.666 96.9333 452.4 98.4C454 99.7333 455.466 99.6 459.866 97.8666C465.2 95.7333 465.6 95.7333 468.133 98.1333C469.733 99.6 471.733 102.267 472.666 104.133C474.133 106.8 476.666 108.133 483.866 110.267C494.266 113.333 495.6 112.533 490.533 106.133C487.066 101.733 489.066 101.733 495.6 106C500.4 109.333 500.533 109.333 501.466 106.8C502 105.467 503.6 103.6 504.8 102.933C507.333 101.6 507.333 101.467 500.666 92.5333C499.733 91.2 500.133 90 501.733 88.4C504 86.1333 504.266 86.1333 507.733 90.4C511.6 94.9333 515.2 96 516.533 92.6666C516.933 91.6 518.533 90.6666 520 90.6666C521.6 90.6666 524 89.6 525.466 88.1333C528.133 85.7333 528.133 85.7333 523.2 81.4666C520.133 78.8 517.333 77.3333 515.866 77.7333C512.133 78.6666 509.866 75.2 512.533 72.6666C513.733 71.4666 514.666 69.7333 514.666 68.8C514.666 66.5333 510.266 62.6666 507.733 62.6666C506.533 62.6666 505.333 61.7333 504.8 60.6666C504.4 59.6 502.666 58.6666 500.8 58.6666C498.8 58.6666 496.266 57.0667 493.866 54.4C490.533 50.2667 489.6 50 479.466 49.2C467.866 48.2667 459.066 50 454.533 54.1333C452.4 56.1333 452 56.1333 452 54.4C452 53.2 453.333 51.3333 455.066 50.2667C457.866 48.1333 458 48.1333 455.2 48.1333C450.266 48 440.8 52 435.733 56.4C431.733 60 431.066 61.2 432.133 63.6C432.933 65.8666 434.266 66.6666 437.466 66.6666C440.666 66.6666 441.466 67.0667 440.8 68.8C440.4 70 440 71.0667 440 71.3333C440 72.2667 426.933 81.0667 424.266 81.8666C420.666 83.0667 420.133 79.4666 423.466 77.6C426.4 76 425.333 71.4666 421.733 70.9333C419.466 70.5333 418.8 69.4666 418.4 64.2667C417.6 56.5333 418.666 55.0667 425.733 54C428.8 53.4666 433.733 51.6 436.666 49.8666L442 46.6666H432.4C423.466 46.6666 422.666 46.9333 419.466 50.6666Z" fill="#E6E6E6"/>
<path d="M683.467 89.2L679.733 91.7334L682.667 93.3334C684.267 94.1334 686.4 94.5334 687.467 94.1334C688.667 93.7334 689.333 94.2667 689.333 95.8667C689.333 97.2 690.8 99.0667 692.667 100C694.533 100.933 696 102.4 696 103.067C696 104.533 704.8 103.2 714.533 100.267C723.067 97.6 726.133 93.3334 721.867 90C720.533 88.9334 717.867 88.2667 716 88.6667C703.6 90.8 694.533 90.9334 691.333 88.8C687.333 86.2667 688.133 86.1334 683.467 89.2Z" fill="#E6E6E6"/>
<path d="M766.666 130C765.733 131.2 764.133 131.867 763.066 131.467C762 131.067 759.333 132 757.066 133.733C752.133 137.333 750 142.267 752.133 144.8C753.333 146.267 753.2 146.667 751.866 146.667C750.666 146.8 751.066 147.733 753.066 149.2C754.666 150.667 756 152.4 756 153.2C756 154 757.466 154.667 759.2 154.667C761.6 154.667 762.8 155.733 763.733 158.533C765.066 162.133 764.8 162.4 761.2 163.2C757.6 163.867 755.6 166.667 758.666 166.667C761.333 166.667 759.866 169.067 756.666 169.867C752.4 170.933 752.4 173.333 756.533 173.333C758.4 173.333 760.266 173.867 760.666 174.667C761.066 175.333 760.666 176 759.6 176C757.866 176 752 181.333 752 182.933C752 184.133 759.866 181.733 762 180C762.933 179.2 767.866 178.8 772.933 178.933C782.933 179.2 786 178.133 784.8 175.067C784.4 174 784.933 172.267 786 171.067C788.8 168.4 787.866 166.133 783.866 165.333C782.133 164.933 780.533 163.867 780.266 162.8C779.733 160.267 772 149.067 769.466 147.067C767.6 145.733 767.6 145.333 769.733 143.067C772.933 139.467 772.533 137.333 768.8 137.333C764.933 137.333 763.066 135.333 765.866 134.267C768.133 133.333 771.333 128 769.6 128C768.933 128 767.6 128.933 766.666 130Z" fill="#E6E6E6"/>
<path d="M739.733 154.133C738.667 156.533 737.467 157.333 735.6 156.8C732.133 156 730.133 161.333 733.067 163.733C735.067 165.2 734.933 165.6 732.267 167.467C725.067 172.533 731.333 175.6 741.467 172C749.067 169.467 750.667 167.733 750.667 162.4C750.667 160.4 751.333 158.4 752 158C754.933 156.133 753.333 152.267 749.2 151.467C742.533 150.133 741.333 150.533 739.733 154.133Z" fill="#E6E6E6"/>
<path d="M1431.47 342.533C1428.67 347.867 1428.8 351.867 1432 356.533L1434.53 360.533L1435.87 356.933C1438.4 350.533 1438.67 347.467 1437.6 343.467C1436.13 338 1433.87 337.733 1431.47 342.533Z" fill="#E6E6E6"/>
<path d="M311.733 356C309.6 357.6 308 360 308 361.467C308 364.933 310 364.667 312.933 360.933C316.933 355.867 318.267 355.733 327.067 358.8C336.667 362.133 340 364.667 340 368.533C340 374 341.6 374.667 351.067 373.733C356 373.333 361.067 372.267 362.267 371.333C364.267 369.867 363.867 369.467 359.733 368.133C357.2 367.333 353.333 364.8 351.333 362.667C346.667 357.867 338.133 355.067 324.933 354C316.533 353.333 314.933 353.6 311.733 356Z" fill="#E6E6E6"/>
<path d="M370 374.933C370.933 379.067 369.467 381.067 364.8 381.6C358.133 382.267 358.933 385.333 365.867 385.333C369.2 385.333 372 385.867 372 386.667C372 388.8 376.267 388.133 378 385.733C379.067 384.4 382.267 383.333 387.2 382.933C391.333 382.667 394.667 381.867 394.667 381.2C394.667 380.667 392.667 378.667 390.267 376.8C387.2 374.4 384.4 373.467 380.667 373.6C377.733 373.733 374 373.333 372.267 372.8C369.6 371.867 369.333 372.133 370 374.933Z" fill="#E6E6E6"/>
<path d="M1376.27 372.933C1374.67 373.2 1372.67 374.667 1372 376C1368.67 382.4 1376.8 385.467 1380.8 379.333C1382.8 376.133 1382.67 371.733 1380.4 372.133C1379.87 372.267 1378 372.667 1376.27 372.933Z" fill="#E6E6E6"/>
<path d="M1441.07 380.133C1439.6 380.933 1438.67 383.067 1438.67 385.733C1438.67 388.133 1437.73 391.733 1436.67 393.733C1434.27 398.4 1435.47 404.933 1438.93 406.8C1440.8 407.733 1441.33 409.067 1440.8 411.067C1440.4 412.8 1441.2 415.2 1442.67 416.933C1445.87 420.933 1446.67 420.8 1446.67 416C1446.67 412.133 1446.8 412.133 1450.27 413.733C1452.27 414.533 1456.13 417.733 1458.8 420.667C1463.07 425.2 1463.47 426.133 1461.73 427.2C1460.4 428 1458.4 427.6 1456 426.133C1453.87 424.933 1451.87 424 1451.47 424C1449.6 424 1450.8 430.8 1453.07 433.067C1454.4 434.4 1455.87 436.533 1456.4 437.733C1457.33 440.133 1459.6 440.533 1463.2 439.2C1466 438.133 1465.87 436.133 1463.07 433.067C1461.07 430.8 1461.07 430.4 1462.67 429.333C1465.73 427.333 1466.93 428.4 1468.8 434.8C1470.53 440.267 1470.4 440.8 1467.73 442.8C1466.27 444 1463.87 444.667 1462.53 444.4C1459.6 443.6 1455.33 447.867 1454.13 452.8C1453.33 456.4 1453.47 456.533 1455.33 454.133C1456.4 452.667 1458.67 451.467 1460.53 451.2C1463.2 450.933 1463.87 451.6 1464.53 455.333C1465.07 458.267 1466.93 460.933 1469.33 462.667L1473.33 465.467V460.667C1473.33 456.8 1473.87 456 1475.73 456.267C1477.2 456.533 1477.87 456 1477.47 454.667C1477.33 453.6 1476.93 449.6 1476.8 445.733C1476.67 440.667 1475.87 438 1473.6 435.6C1472 433.867 1470.67 430.8 1470.67 428.8C1470.67 423.467 1468.53 420.267 1464 419.333C1460.53 418.533 1460.13 418 1460.8 414.8C1461.47 411.6 1461.07 410.933 1457.73 409.6C1455.73 408.8 1452.53 408 1450.67 407.733C1447.87 407.333 1447.33 406.533 1446.93 402.4C1446.67 399.733 1447.07 396.267 1447.87 394.933C1448.8 393.2 1448.8 390.667 1447.87 387.2C1446 380.4 1444 378.4 1441.07 380.133Z" fill="#E6E6E6"/>
<path d="M1422.27 458.667C1420.93 461.467 1417.87 465.067 1415.33 466.667C1412.93 468.133 1409.2 471.333 1407.07 473.733C1404.93 476.133 1401.73 478.667 1399.73 479.6C1397.73 480.533 1395.2 483.067 1394 485.467C1392 489.2 1391.33 489.6 1387.07 488.933C1383.47 488.267 1382.53 488.533 1383.2 490C1383.6 491.067 1383.33 492.267 1382.67 492.667C1380.53 494 1381.2 500.4 1384 505.067C1385.47 507.467 1386.67 511.467 1386.67 513.867C1386.67 519.6 1389.6 521.867 1396 521.6C1398.8 521.333 1403.33 522.133 1406.13 523.333C1411.87 525.733 1416.4 525.867 1420.27 523.867C1422.4 522.667 1422.8 521.6 1422.13 518C1421.33 514.267 1421.87 512.933 1425.33 509.333C1428.27 506.4 1429.33 504 1429.33 500.667C1429.33 496.8 1429.87 495.867 1432.67 495.2C1436.67 494.267 1436.8 493.333 1433.33 488.933C1429.73 484.4 1430 478.933 1434 473.067C1435.87 470.4 1437.33 467.333 1437.33 466.4C1437.33 464.8 1426.8 453.333 1425.33 453.333C1424.93 453.333 1423.6 455.733 1422.27 458.667Z" fill="#E6E6E6"/>
<path d="M1303.47 464.933C1301.73 466.667 1302.8 468.8 1306.53 470.933C1308.8 472.133 1312 475.467 1313.87 478.4C1315.73 481.333 1318.4 484.133 1319.87 484.667C1321.33 485.067 1323.47 487.067 1324.53 489.067C1329.73 499.067 1333.73 508.133 1336 515.067C1338.67 523.467 1346.13 531.733 1354.67 535.467C1359.07 537.467 1359.33 537.467 1361.73 534.533C1363.2 532.8 1363.87 530.4 1363.47 528.667C1363.07 527.067 1363.87 523.6 1365.33 520.933L1368 516H1364.67C1362.8 516 1361.33 515.333 1361.33 514.667C1361.33 513.867 1358.8 510.933 1355.87 508C1351.6 503.867 1350.67 502.267 1351.73 500.933C1352.93 499.6 1352 498.133 1347.6 494.533C1344.53 492 1339.73 488.533 1337.07 486.8C1334.27 485.2 1330.93 482 1329.73 479.733C1328 476.933 1323.73 474 1315.87 469.867C1309.47 466.8 1304 464.533 1303.47 464.933Z" fill="#E6E6E6"/>
<path d="M1467.33 490.8C1464.13 492.667 1462 492.933 1456.67 492C1446 490.133 1444.53 490.4 1442.93 494C1442 495.867 1441.33 498.933 1441.33 500.667C1441.33 502.4 1440.13 506.533 1438.67 509.867C1436.67 514.8 1436.4 516.8 1437.47 519.733C1438.27 521.733 1438.93 526.133 1438.8 529.6C1438.67 536.133 1439.87 537.333 1444 534.667C1445.47 533.733 1445.87 531.333 1445.73 525.333C1445.47 517.733 1446.67 515.333 1448.93 518.933C1449.47 519.867 1450 521.2 1450 522C1450.4 525.867 1452.67 531.467 1454.53 532.8C1459.73 536.8 1461.87 529.333 1457.73 521.067C1456.53 518.667 1455.07 515.6 1454.4 514.267C1453.47 512.4 1454 511.2 1456.53 509.2C1458.53 507.733 1460 505.867 1460 505.2C1460 503.467 1453.73 503.733 1450.53 505.6C1448.27 507.067 1447.6 506.933 1445.87 504.667C1441.33 498.533 1446.4 492.8 1453.6 496C1462.93 500 1472.8 497.333 1471.73 491.067C1471.33 488.533 1471.2 488.533 1467.33 490.8Z" fill="#E6E6E6"/>
<path d="M1504.4 503.6C1502.67 503.867 1501.33 504.667 1501.33 505.2C1501.33 506.667 1505.87 510.667 1507.6 510.667C1509.47 510.667 1514 515.867 1512.93 516.8C1511.33 518.4 1516 525.333 1518.4 524.933C1521.47 524.533 1538.8 530.533 1541.6 532.933C1544.93 535.867 1546.27 545.333 1543.47 546.933C1540.27 548.8 1540.93 550.667 1544.67 550.667C1546.53 550.667 1551.07 552.133 1554.67 554C1563.87 558.667 1566.93 558.267 1573.47 552C1576.53 549.067 1579.47 546.667 1580.13 546.667C1580.67 546.667 1584 550 1587.47 554C1592.13 559.467 1595.47 561.867 1600.27 563.467C1603.73 564.533 1607.33 565.333 1608.27 565.067C1609.07 564.8 1606.13 560.8 1601.73 556.133C1592.8 547.067 1590.53 542.667 1594.8 542.667C1596.13 542.667 1597.33 541.867 1597.33 540.8C1597.33 538.267 1591.07 533.333 1587.87 533.333C1586.27 533.333 1585.33 532.4 1585.33 530.8C1585.33 529.333 1583.33 526.667 1581.07 524.933C1572.67 518.667 1548.67 508 1542.93 508C1541.87 508 1538.53 510.8 1535.33 514.267L1529.6 520.4L1524.8 515.2C1520.93 511.067 1520.13 509.333 1520.8 506.267C1521.6 502.667 1521.47 502.667 1514.4 502.8C1510.53 502.933 1506 503.333 1504.4 503.6Z" fill="#E6E6E6"/>
<path d="M1366 536.933C1359.6 538.533 1358 542.667 1363.87 542.667C1366.13 542.667 1369.6 544.133 1372 546.133C1375.33 548.933 1378.67 550 1389.73 551.6C1397.2 552.667 1405.73 554.4 1408.53 555.333C1412.93 556.933 1414.67 556.933 1419.07 555.333C1423.07 554 1425.2 553.867 1427.07 554.933C1428.53 555.6 1433.07 556 1437.2 555.733C1441.33 555.333 1446.4 555.6 1448.67 556.133C1450.93 556.8 1454.4 556.8 1456.67 556.133C1458.8 555.467 1463.07 554.533 1466 554L1471.33 553.2L1466 556.8C1463.07 558.8 1460.53 560.533 1460.53 560.533C1460.4 560.667 1459.87 562.133 1459.33 563.867C1458.53 566.667 1459.33 566.267 1465.6 560.933C1469.6 557.6 1474.53 554.133 1476.67 553.333C1480.27 552 1480.4 551.6 1478.27 550.533C1476.67 549.6 1473.6 549.733 1468.67 550.8C1463.2 552 1460.53 552 1458 550.933C1455.47 549.733 1453.73 549.867 1450.4 551.2C1446.93 552.667 1444.4 552.8 1438.67 551.733C1434.67 550.933 1427.73 550.133 1423.33 550C1408.67 549.6 1399.87 546.8 1406 544.533C1409.47 543.2 1406.67 541.333 1401.2 541.333C1398.27 541.333 1394.4 540.4 1392.53 539.067C1389.33 537.067 1389.2 537.067 1388.4 539.733C1387.33 544 1379.6 543.733 1374.4 539.333C1372.27 537.467 1370 536.133 1369.6 536.133C1369.07 536.267 1367.47 536.667 1366 536.933Z" fill="#E6E6E6"/>
<path d="M1507.07 572C1507.87 575.467 1507.47 576 1504.27 576.667C1502.27 577.2 1499.73 578 1498.67 578.533C1496.13 579.867 1490.67 589.467 1491.47 590.933C1491.87 591.467 1492 592 1491.73 592C1491.47 592 1489.33 592.533 1486.93 593.2C1482.93 594.4 1482.4 594.133 1481.07 591.2C1478.13 584.933 1470 585.733 1469.07 592.4C1468.8 594.533 1467.87 595.2 1465.73 594.933C1464 594.667 1462.67 595.2 1462.67 596C1462.67 596.8 1460.53 599.467 1458 602.133C1454.27 605.867 1453.2 606.4 1452.53 604.667C1451.87 602.933 1451.33 603.067 1449.2 605.467C1447.73 607.067 1446.67 609.467 1446.67 610.8C1446.67 616.133 1438.93 622.267 1427.2 626.533C1420.93 628.8 1414.93 630.667 1413.87 630.667C1412.67 630.667 1409.07 632.667 1405.6 634.933C1402.13 637.333 1398.4 639.333 1397.33 639.333C1396 639.333 1395.2 641.067 1394.93 644.933C1394.67 648 1393.73 651.2 1392.67 652C1391.47 653.067 1391.07 654.933 1391.6 657.467C1392.13 660.4 1391.73 661.867 1390 663.2C1388 664.667 1387.87 665.333 1389.33 667.867C1390.27 669.733 1390.93 677.2 1391.07 686.533C1391.33 699.2 1390.93 703.067 1388.8 707.733C1387.47 710.8 1385.47 713.333 1384.4 713.333C1381.07 713.333 1382.53 718.533 1386.67 720.667C1392.13 723.467 1394.67 723.2 1403.07 718.667C1409.47 715.333 1412.13 714.667 1420 714.667C1425.2 714.667 1429.33 714.133 1429.33 713.333C1429.33 709.067 1456.27 700.667 1469.6 700.933C1481.2 701.067 1492.53 709.733 1489.87 716.533C1488.4 720.267 1493.2 720.8 1496.4 717.067C1500 712.933 1506.67 708.8 1506.67 710.667C1506.67 711.333 1504.93 713.6 1502.67 715.6C1497.87 719.867 1497.33 722.533 1502 719.467C1506.13 716.667 1506.53 716.8 1505.73 720C1505.33 721.467 1502.67 723.6 1499.87 724.933C1494.4 727.333 1493.47 728.533 1496.53 729.733C1497.6 730.133 1499.73 729.067 1501.47 727.2C1505.73 722.667 1507.07 723.2 1506.27 729.2C1505.33 736.4 1508.93 742 1515.6 743.867C1522.53 745.867 1526 745.733 1528 743.333C1530.13 740.8 1532 740.8 1532 743.2C1532 744.133 1532.8 745.733 1533.73 746.533C1535.2 747.6 1536.93 746.933 1541.47 743.467C1544.93 740.8 1549.47 738.667 1552.53 738.267C1555.33 737.867 1558 737.067 1558.53 736.4C1562.8 729.867 1581.87 708.133 1584.4 706.8C1589.87 703.867 1598.67 687.333 1602.67 672.667L1606.27 659.2L1602.53 654C1600.53 651.067 1598.4 647.067 1598 645.067C1597.47 642.933 1595.87 640.533 1594.4 639.467C1592.8 638.267 1591.6 635.733 1591.33 633.067C1591.07 630.267 1589.2 626.667 1586 622.933C1580.8 616.933 1577.33 608 1577.33 600.533C1577.33 593.6 1575.07 589.067 1572.13 590C1570 590.667 1569.47 589.867 1568.67 585.067C1565.07 562.4 1562.13 562.533 1558.13 586C1555.87 599.067 1550.27 610.667 1546.4 610.667C1543.6 610.667 1537.2 606.933 1535.6 604.4C1535.07 603.467 1532 600.267 1528.67 597.2L1522.93 591.733L1526.8 585.867C1529.07 582.667 1531.33 579.733 1532.13 579.333C1533.6 578.267 1533.6 577.2 1532.13 574.8C1531.2 573.333 1530.13 573.333 1526.4 574.667C1522.4 576.133 1521.2 576 1516.4 573.467C1513.33 572 1510.53 570.133 1510 569.333C1508.13 566.4 1506.4 568.133 1507.07 572Z" fill="#E6E6E6"/>
<path d="M1043.87 579.6C1041.87 581.733 1038.53 586.133 1036.27 589.467C1033.2 594.133 1030.27 596.4 1024.8 598.8C1015.73 602.667 1012.4 608.4 1014.67 616C1016.8 623.2 1016.27 628 1012.8 633.867C1010.8 637.333 1009.47 641.867 1009.33 646C1008.8 655.467 1008.93 655.733 1012.8 659.333C1020.67 666.667 1030.13 661.467 1033.87 647.733C1037.33 634.667 1041.2 621.467 1044.27 612.267C1045.73 607.733 1046.53 602.933 1046.13 601.867C1045.6 600.4 1046.27 599.467 1048 599.067C1050.27 598.4 1050.67 597.2 1050.67 590.133C1050.53 585.733 1049.87 580.667 1048.93 578.933L1047.2 576L1043.87 579.6Z" fill="#E6E6E6"/>
<path d="M1687.47 723.733C1687.07 726.4 1686.67 730.267 1686.67 732.267C1686.67 738 1682.67 745.067 1678.4 746.8C1674.93 748.267 1674.8 748.533 1676.67 750.667C1679.47 753.733 1679.2 755.467 1675.73 757.867C1672 760.533 1670.67 760.533 1670.67 758C1670.67 756.267 1670.13 756.133 1667.87 757.333C1666.4 758.133 1664.53 758.533 1663.6 758.267C1662.67 758 1659.6 759.6 1656.67 761.867C1653.73 764.267 1647.33 768.267 1642.53 770.933C1637.73 773.6 1628.27 779.067 1621.47 783.333L1609.07 790.933L1613.2 793.467C1617.33 796 1617.47 796 1622.4 793.467C1625.2 792 1630.93 788.267 1635.33 784.933C1639.73 781.733 1645.2 778.533 1647.6 778.133C1650.13 777.467 1652.27 776.133 1652.67 774.533C1653.2 773.2 1655.47 771.067 1657.73 769.867C1660.13 768.667 1663.33 766.533 1664.93 765.067C1666.67 763.467 1670 762.267 1672.93 762.133C1678.8 761.867 1690 754.933 1691.33 750.667C1691.73 749.2 1693.33 748 1694.67 748C1697.2 748 1705.33 740.8 1705.33 738.4C1705.33 737.6 1704.27 737.467 1703.07 738C1698.67 739.733 1696.67 739.333 1695.33 736.267C1694.67 734.667 1693.6 733.333 1692.93 733.333C1692.27 733.333 1692.27 730.667 1692.67 727.467C1693.47 722.4 1693.2 721.333 1690.93 720.133C1688.67 718.933 1688.27 719.333 1687.47 723.733Z" fill="#E6E6E6"/>
<path d="M1517.47 763.333C1514 774.4 1514 774.4 1517.73 774.933C1522.8 775.867 1530.13 770.8 1534 763.867L1537.47 757.333L1531.33 758.133C1526.67 758.8 1524.67 758.533 1522.8 756.667C1520.27 754.533 1520.13 754.667 1517.47 763.333Z" fill="#E6E6E6"/>
</svg>
