<svg width="20" height="20" viewBox="0 0 20 20" fill="none" xmlns="http://www.w3.org/2000/svg">
<path d="M13.4716 11.7495C10.1506 11.7495 8.08514 9.7594 8.08514 6.53884C8.08514 5.63482 8.23581 4.81869 8.46809 4.37296C8.57481 4.16579 8.6062 4.04023 8.6062 3.88328C8.6062 3.61961 8.38647 3.34338 8.06002 3.34338C7.97841 3.34338 7.83402 3.3685 7.63313 3.44383C5.27891 4.40435 3.64038 6.85901 3.64038 9.51456C3.64038 13.3315 6.42149 16.1189 10.2385 16.1189C12.9631 16.1189 15.2106 14.6624 16.2401 12.3019C16.328 12.1073 16.3531 11.9441 16.3531 11.8437C16.3531 11.5235 16.1083 11.3226 15.8509 11.3226C15.7191 11.3226 15.5998 11.3414 15.4177 11.423C14.9343 11.6239 14.1935 11.7495 13.4716 11.7495ZM4.87085 9.47689C4.87085 7.70653 5.75603 5.99266 7.19995 5.01958C7.03045 5.52182 6.94256 6.08055 6.94256 6.68951C6.94256 10.5504 9.3156 12.8732 13.2644 12.8732C13.7917 12.8732 14.25 12.8105 14.6832 12.6598C13.7666 14.0535 12.0904 14.8947 10.2761 14.8947C7.14973 14.8947 4.87085 12.6096 4.87085 9.47689Z" fill="#1C1C1E"/>
</svg>
