<svg width="19" height="21" viewBox="0 0 19 21" fill="none" xmlns="http://www.w3.org/2000/svg">
<path d="M8.08984 3.69995C11.2275 3.69995 13.7803 6.25268 13.7803 9.39038C13.7802 10.6445 13.3717 11.8043 12.6816 12.7458L15.7432 15.8064C16.0851 16.1484 16.085 16.7023 15.7432 17.0437C15.5718 17.2144 15.3478 17.3005 15.124 17.3005C14.9004 17.3005 14.6765 17.2143 14.5059 17.0437L11.4443 13.9832C10.503 14.6725 9.34328 15.0808 8.08984 15.0808C4.95234 15.0807 2.39953 12.5279 2.39941 9.39038C2.39941 6.25277 4.95227 3.7001 8.08984 3.69995ZM8.08984 5.45093C5.91724 5.45108 4.15039 7.21843 4.15039 9.39038C4.15051 11.5622 5.918 13.3297 8.08984 13.3298C10.2618 13.3298 12.0292 11.5623 12.0293 9.39038C12.0293 7.21834 10.2619 5.45093 8.08984 5.45093Z" fill="#333333"/>
</svg>
