<svg width="48" height="48" viewBox="0 0 48 48" fill="none" xmlns="http://www.w3.org/2000/svg">
<mask id="mask0_174_5" style="mask-type:alpha" maskUnits="userSpaceOnUse" x="0" y="0" width="48" height="48">
<rect width="48" height="48" fill="#D9D9D9"/>
</mask>
<g mask="url(#mask0_174_5)">
<path d="M12 42V40L15 38C13.0333 38 11.375 37.325 10.025 35.975C8.675 34.625 8 32.9667 8 31V12C8 9.23333 9.28333 7.20833 11.85 5.925C14.4167 4.64167 18.4667 4 24 4C29.7333 4 33.8333 4.61667 36.3 5.85C38.7667 7.08333 40 9.13333 40 12V31C40 32.9667 39.325 34.625 37.975 35.975C36.625 37.325 34.9667 38 33 38L36 40V42H12ZM11 20.75H22.7V13H11V20.75ZM25.7 20.75H37V13H25.7V20.75ZM16.753 32.25C17.5177 32.25 18.1667 31.9823 18.7 31.447C19.2333 30.9117 19.5 30.2617 19.5 29.497C19.5 28.7323 19.2323 28.0833 18.697 27.55C18.1617 27.0167 17.5117 26.75 16.747 26.75C15.9823 26.75 15.3333 27.0177 14.8 27.553C14.2667 28.0883 14 28.7383 14 29.503C14 30.2677 14.2677 30.9167 14.803 31.45C15.3383 31.9833 15.9883 32.25 16.753 32.25ZM31.253 32.25C32.0177 32.25 32.6667 31.9823 33.2 31.447C33.7333 30.9117 34 30.2617 34 29.497C34 28.7323 33.7323 28.0833 33.197 27.55C32.6617 27.0167 32.0117 26.75 31.247 26.75C30.4823 26.75 29.8333 27.0177 29.3 27.553C28.7667 28.0883 28.5 28.7383 28.5 29.503C28.5 30.2677 28.7677 30.9167 29.303 31.45C29.8383 31.9833 30.4883 32.25 31.253 32.25ZM15 35.25H33C34.1333 35.25 35.0833 34.8333 35.85 34C36.6167 33.1667 37 32.1667 37 31V23.75H11V31C11 32.1667 11.3833 33.1667 12.15 34C12.9167 34.8333 13.8667 35.25 15 35.25ZM24 7C20 7 17.1167 7.25833 15.35 7.775C13.5833 8.29167 12.3167 9.03333 11.55 10H36.6C36 9.1 34.725 8.375 32.775 7.825C30.825 7.275 27.9 7 24 7Z" fill="#4192B5"/>
</g>
</svg>
