<svg width="48" height="48" viewBox="0 0 48 48" fill="none" xmlns="http://www.w3.org/2000/svg">
<mask id="mask0_174_151" style="mask-type:alpha" maskUnits="userSpaceOnUse" x="0" y="0" width="48" height="48">
<rect width="48" height="48" fill="#D9D9D9"/>
</mask>
<g mask="url(#mask0_174_151)">
<path d="M8.90021 44H6.00021V41H8.90021C10.2335 41 11.5502 40.8167 12.8502 40.45C14.1502 40.0833 15.4169 39.5167 16.6502 38.75C17.8169 39.4833 19.0169 40.025 20.2502 40.375C21.4835 40.725 22.7335 40.9 24.0002 40.9C25.2669 40.9 26.5169 40.725 27.7502 40.375C28.9835 40.025 30.1835 39.4833 31.3502 38.75C32.6169 39.5167 33.9085 40.0833 35.2252 40.45C36.5419 40.8167 37.8502 41 39.1502 41H42.0002V44H39.1502C37.8502 44 36.5502 43.85 35.2502 43.55C33.9502 43.25 32.6669 42.7833 31.4002 42.15C30.1335 42.7833 28.8835 43.25 27.6502 43.55C26.4169 43.85 25.2002 44 24.0002 44C22.8002 44 21.5835 43.8417 20.3502 43.525C19.1169 43.2083 17.8835 42.75 16.6502 42.15C15.3835 42.75 14.0919 43.2083 12.7752 43.525C11.4585 43.8417 10.1669 44 8.90021 44ZM24.0002 36.55C22.8002 36.55 21.5419 36.2083 20.2252 35.525C18.9085 34.8417 17.6669 33.8833 16.5002 32.65C15.4002 33.75 14.2169 34.625 12.9502 35.275C11.6835 35.925 10.4002 36.3333 9.10021 36.5L5.55021 24.25C5.41688 23.85 5.45021 23.475 5.65021 23.125C5.85021 22.775 6.15021 22.5333 6.55021 22.4L9.30021 21.6V12.1C9.30021 11.2667 9.59188 10.5583 10.1752 9.97501C10.7585 9.39168 11.4669 9.10001 12.3002 9.10001H18.9002V3.95001H29.1002V9.10001H35.7002C36.5335 9.10001 37.2419 9.39168 37.8252 9.97501C38.4085 10.5583 38.7002 11.2667 38.7002 12.1V21.6L41.4502 22.4C41.8502 22.5333 42.1502 22.775 42.3502 23.125C42.5502 23.475 42.5835 23.85 42.4502 24.25L38.9002 36.5C37.6002 36.3333 36.3169 35.925 35.0502 35.275C33.7835 34.625 32.6002 33.75 31.5002 32.65C30.3335 33.8833 29.0919 34.8417 27.7752 35.525C26.4585 36.2083 25.2002 36.55 24.0002 36.55ZM24.0502 33.55C25.1169 33.55 26.0919 33.25 26.9752 32.65C27.8585 32.05 28.6502 31.3333 29.3502 30.5L31.4002 28.1L33.2002 30C33.7335 30.5667 34.3002 31.0833 34.9002 31.55C35.5002 32.0167 36.1335 32.4333 36.8002 32.8L39.2002 24.85L24.0002 20.25L8.80021 24.85L11.2002 32.8C11.8669 32.4333 12.5002 32.0167 13.1002 31.55C13.7002 31.0833 14.2669 30.5667 14.8002 30L16.6002 28.1L18.6502 30.5C19.3835 31.3333 20.2002 32.05 21.1002 32.65C22.0002 33.25 22.9835 33.55 24.0502 33.55ZM12.3002 20.65L24.0002 17.1L35.7002 20.7V12.1H12.3002V20.65Z" fill="#4192B5"/>
</g>
</svg>
