<svg width="48" height="48" viewBox="0 0 48 48" fill="none" xmlns="http://www.w3.org/2000/svg">
<mask id="mask0_174_998" style="mask-type:alpha" maskUnits="userSpaceOnUse" x="0" y="0" width="48" height="48">
<rect width="48" height="48" fill="#D9D9D9"/>
</mask>
<g mask="url(#mask0_174_998)">
<path d="M22.5 40.3V24.85L9 17.05V32.5L22.5 40.3ZM25.5 40.3L39 32.5V17L25.5 24.85V40.3ZM22.5 43.75L7.5 35.1C7.03333 34.8333 6.66667 34.4666 6.4 34C6.13333 33.5333 6 33.0333 6 32.5V15.5C6 14.9666 6.13333 14.4666 6.4 14C6.66667 13.5333 7.03333 13.1666 7.5 12.9L22.5 4.24998C22.9667 3.98331 23.4667 3.84998 24 3.84998C24.5333 3.84998 25.0333 3.98331 25.5 4.24998L40.5 12.9C40.9667 13.1666 41.3333 13.5333 41.6 14C41.8667 14.4666 42 14.9666 42 15.5V32.5C42 33.0333 41.8667 33.5333 41.6 34C41.3333 34.4666 40.9667 34.8333 40.5 35.1L25.5 43.75C25.0333 44.0166 24.5333 44.15 24 44.15C23.4667 44.15 22.9667 44.0166 22.5 43.75ZM32.2 17.5L37.3 14.55L24 6.84998L18.9 9.79998L32.2 17.5ZM24 22.3L29.2 19.25L15.85 11.55L10.65 14.55L24 22.3Z" fill="#4192B5"/>
</g>
</svg>
