<svg width="48" height="48" viewBox="0 0 48 48" fill="none" xmlns="http://www.w3.org/2000/svg">
<mask id="mask0_174_11" style="mask-type:alpha" maskUnits="userSpaceOnUse" x="0" y="0" width="48" height="48">
<rect width="48" height="48" fill="#D9D9D9"/>
</mask>
<g mask="url(#mask0_174_11)">
<path d="M7.5 41.5C5.97233 41.5 4.67367 40.9653 3.604 39.896C2.53467 38.8263 2 37.5277 2 36C2 35.1807 2.175 34.4008 2.525 33.6605C2.875 32.9202 3.36667 32.2833 4 31.75V22H8V10H23.4L32.7 31.8C32.9333 32.3 33.125 32.8158 33.275 33.3475C33.425 33.8795 33.5 34.4303 33.5 35C33.5 36.7953 32.8655 38.3275 31.5965 39.5965C30.3275 40.8655 28.7953 41.5 27 41.5C25.708 41.5 24.5183 41.1333 23.431 40.4C22.3437 39.6667 21.5333 38.7 21 37.5H12.8C12.4667 38.6667 11.8083 39.625 10.825 40.375C9.84167 41.125 8.73333 41.5 7.5 41.5ZM37 39.5V8H40V36.5H46V39.5H37ZM7.491 38.5C8.197 38.5 8.79167 38.2613 9.275 37.784C9.75833 37.3063 10 36.7147 10 36.009C10 35.303 9.76133 34.7083 9.284 34.225C8.80633 33.7417 8.21467 33.5 7.509 33.5C6.803 33.5 6.20833 33.7387 5.725 34.216C5.24167 34.6937 5 35.2853 5 35.991C5 36.697 5.23867 37.2917 5.716 37.775C6.19367 38.2583 6.78533 38.5 7.491 38.5ZM26.994 38.5C27.9647 38.5 28.7917 38.1603 29.475 37.481C30.1583 36.8017 30.5 35.9767 30.5 35.006C30.5 34.0353 30.1603 33.2083 29.481 32.525C28.8017 31.8417 27.9767 31.5 27.006 31.5C26.0353 31.5 25.2083 31.8397 24.525 32.519C23.8417 33.1983 23.5 34.0233 23.5 34.994C23.5 35.9647 23.8397 36.7917 24.519 37.475C25.1983 38.1583 26.0233 38.5 26.994 38.5ZM12.8 34.5H20.48C20.56 33.9667 20.6833 33.45 20.85 32.95C21.0167 32.45 21.2333 31.9667 21.5 31.5H15.8L9.65 25H7V30.5H7.5C8.73333 30.5 9.84167 30.875 10.825 31.625C11.8083 32.375 12.4667 33.3333 12.8 34.5ZM17.15 28.45H28L21.45 13H11V22L17.15 28.45ZM15.8 31.5L14.85 30.475C14.2167 29.7917 13.5083 29.05 12.725 28.25C11.9417 27.45 11.2333 26.7083 10.6 26.025L9.65 25L15.8 31.5Z" fill="#4192B5"/>
</g>
</svg>
