<svg width="95" height="95" viewBox="0 0 95 95" fill="none" xmlns="http://www.w3.org/2000/svg">
<mask id="mask0_41_457" style="mask-type:alpha" maskUnits="userSpaceOnUse" x="0" y="0" width="95" height="95">
<rect width="95" height="95" fill="#D9D9D9"/>
</mask>
<g mask="url(#mask0_41_457)">
<path d="M16.2288 79.1667V28.0053L8.11426 10.5886L13.6559 7.91675L22.5622 28.0053H72.5361L81.4424 7.91675L86.9841 10.5886L78.8695 28.0053V79.1667H16.2288ZM39.1872 49.7761H56.0101C56.8512 49.7761 57.5565 49.4898 58.1258 48.9172C58.6945 48.3452 58.9788 47.636 58.9788 46.7896C58.9788 45.9438 58.6945 45.2405 58.1258 44.6798C57.5565 44.119 56.8512 43.8386 56.0101 43.8386H39.1872C38.346 43.8386 37.6411 44.1249 37.0724 44.6976C36.5031 45.2696 36.2184 45.9788 36.2184 46.8252C36.2184 47.6709 36.5031 48.3742 37.0724 48.935C37.6411 49.4957 38.346 49.7761 39.1872 49.7761ZM22.1663 73.2292H72.932V33.9428H22.1663V73.2292Z" fill="#4192B5"/>
</g>
</svg>
