<svg width="95" height="95" viewBox="0 0 95 95" fill="none" xmlns="http://www.w3.org/2000/svg">
<mask id="mask0_41_451" style="mask-type:alpha" maskUnits="userSpaceOnUse" x="0" y="0" width="95" height="95">
<rect width="95" height="95" fill="#D9D9D9"/>
</mask>
<g mask="url(#mask0_41_451)">
<path d="M19.8903 83.125C16.5917 83.125 13.7879 81.9705 11.4788 79.6615C9.16981 77.3524 8.0153 74.5486 8.0153 71.25C8.0153 67.9514 9.16981 65.1476 11.4788 62.8385C13.7879 60.5295 16.5917 59.375 19.8903 59.375H75.307C78.6056 59.375 81.4094 60.5295 83.7184 62.8385C86.0275 65.1476 87.182 67.9514 87.182 71.25C87.182 74.5486 86.0275 77.3524 83.7184 79.6615C81.4094 81.9705 78.6056 83.125 75.307 83.125H19.8903ZM19.8903 77.1875H75.307C76.9893 77.1875 78.3994 76.6185 79.5374 75.4805C80.6755 74.3424 81.2445 72.9323 81.2445 71.25C81.2445 69.5677 80.6755 68.1576 79.5374 67.0195C78.3994 65.8815 76.9893 65.3125 75.307 65.3125H19.8903C18.208 65.3125 16.7979 65.8815 15.6598 67.0195C14.5218 68.1576 13.9528 69.5677 13.9528 71.25C13.9528 72.9323 14.5218 74.3424 15.6598 75.4805C16.7979 76.6185 18.208 77.1875 19.8903 77.1875ZM38.6924 51.4583C37.8512 51.4583 37.1463 51.1737 36.5776 50.6043C36.0083 50.0356 35.7236 49.3307 35.7236 48.4896V14.8438C35.7236 14.0026 36.0083 13.2974 36.5776 12.728C37.1463 12.1593 37.8512 11.875 38.6924 11.875H72.3382C73.1794 11.875 73.8846 12.1593 74.4539 12.728C75.0226 13.2974 75.307 14.0026 75.307 14.8438V48.4896C75.307 49.3307 75.0226 50.0356 74.4539 50.6043C73.8846 51.1737 73.1794 51.4583 72.3382 51.4583H38.6924ZM41.6611 45.5208H69.3695V17.8125H41.6611V45.5208ZM7.81738 42.5521V36.6146H29.6872V42.5521H7.81738ZM47.4997 30.6771H63.5309V24.7396H47.4997V30.6771ZM15.932 30.6771H30.4788V24.7396H15.932V30.6771Z" fill="#4192B5"/>
</g>
</svg>
