<svg width="95" height="95" viewBox="0 0 95 95" fill="none" xmlns="http://www.w3.org/2000/svg">
<mask id="mask0_41_439" style="mask-type:alpha" maskUnits="userSpaceOnUse" x="0" y="0" width="95" height="95">
<rect width="95" height="95" fill="#D9D9D9"/>
</mask>
<g mask="url(#mask0_41_439)">
<path d="M11.875 83.125V28.2031H28.2031V11.875H66.7969V44.5312H83.125V83.125H52.7448V66.7969H42.2552V83.125H11.875ZM17.8125 77.1875H28.2031V66.7969H17.8125V77.1875ZM17.8125 60.8594H28.2031V50.4688H17.8125V60.8594ZM17.8125 44.5312H28.2031V34.1406H17.8125V44.5312ZM34.1406 60.8594H44.5312V50.4688H34.1406V60.8594ZM34.1406 44.5312H44.5312V34.1406H34.1406V44.5312ZM34.1406 28.2031H44.5312V17.8125H34.1406V28.2031ZM50.4688 60.8594H60.8594V50.4688H50.4688V60.8594ZM50.4688 44.5312H60.8594V34.1406H50.4688V44.5312ZM50.4688 28.2031H60.8594V17.8125H50.4688V28.2031ZM66.7969 77.1875H77.1875V66.7969H66.7969V77.1875ZM66.7969 60.8594H77.1875V50.4688H66.7969V60.8594Z" fill="#4192B5"/>
</g>
</svg>
