<svg width="95" height="95" viewBox="0 0 95 95" fill="none" xmlns="http://www.w3.org/2000/svg">
<mask id="mask0_41_433" style="mask-type:alpha" maskUnits="userSpaceOnUse" x="0" y="0" width="95" height="95">
<rect width="95" height="95" fill="#D9D9D9"/>
</mask>
<g mask="url(#mask0_41_433)">
<path d="M32.9532 76.6926C35.6581 78.3419 38.4619 79.5294 41.3647 80.2551C44.2675 80.9808 47.2692 81.1787 50.3699 80.8489L44.2345 86.8853C42.3213 86.6874 40.4411 86.2916 38.5939 85.6978C36.7466 85.1041 34.8664 84.3454 32.9532 83.4218C30.4463 84.6093 27.8899 85.5164 25.284 86.1432C22.6781 86.7699 20.1216 87.0833 17.6147 87.0833H11.8751V81.1458H17.6147C20.2536 81.1458 22.8595 80.7829 25.4324 80.0572C28.0053 79.3315 30.5123 78.21 32.9532 76.6926ZM37.4064 7.81763H57.5939V18.0103H70.6564C72.2892 18.0103 73.6871 18.5915 74.8502 19.754C76.0126 20.9171 76.5939 22.315 76.5939 23.9478V37.4062C75.6702 37.1423 74.7136 36.9609 73.7241 36.8619C72.7345 36.7629 71.7119 36.6805 70.6564 36.6145V23.9478H24.3439V40.8697L47.5001 33.8437L60.9584 37.9999C59.573 38.4617 58.3031 39.0225 57.1485 39.6822C55.994 40.3419 54.889 41.1006 53.8334 41.9583L47.5001 40.078L17.4168 49.1822L22.1668 64.9166C23.4862 64.1909 24.7397 63.3662 25.9272 62.4426C27.1147 61.519 28.2362 60.4965 29.2918 59.3749L32.8543 55.6145L36.9116 60.3645C38.231 61.8819 39.6824 63.2013 41.2657 64.3228C42.8491 65.4444 44.5973 66.1041 46.5105 66.302V72.3385C44.2675 72.1405 41.9419 71.3819 39.534 70.0624C37.126 68.743 34.8664 66.9287 32.7553 64.6197C30.5123 66.7968 28.1373 68.5286 25.6303 69.815C23.1234 71.1015 20.6164 71.9096 18.1095 72.2395L10.9845 47.9947C10.7206 47.203 10.7806 46.4572 11.1646 45.7573C11.5485 45.058 12.1482 44.5833 12.9636 44.3333L18.4064 42.7499V23.9478C18.4064 22.315 18.9879 20.9171 20.151 19.754C21.3134 18.5915 22.711 18.0103 24.3439 18.0103H37.4064V7.81763ZM52.448 87.0833L60.3647 79.1666C58.1876 79.1666 56.3239 78.3914 54.7735 76.8411C53.2232 75.2907 52.448 73.427 52.448 71.2499V58.3853C52.448 53.7013 54.0515 49.8914 57.2584 46.9557C60.4653 44.0199 64.6344 42.552 69.7657 42.552C74.897 42.552 79.0662 44.0199 82.2731 46.9557C85.48 49.8914 87.0834 53.7013 87.0834 58.3853V71.2499C87.0834 73.427 86.3083 75.2907 84.7579 76.8411C83.2076 78.3914 81.3439 79.1666 79.1668 79.1666L87.0834 87.0833H52.448ZM69.7657 74.2187C70.5574 74.2187 71.2501 73.9218 71.8439 73.328C72.4376 72.7343 72.7345 72.0416 72.7345 71.2499C72.7345 70.4583 72.4376 69.7655 71.8439 69.1718C71.2501 68.578 70.5574 68.2812 69.7657 68.2812C68.9741 68.2812 68.2814 68.578 67.6876 69.1718C67.0939 69.7655 66.797 70.4583 66.797 71.2499C66.797 72.0416 67.0939 72.7343 67.6876 73.328C68.2814 73.9218 68.9741 74.2187 69.7657 74.2187ZM58.3855 62.3437H81.1459V58.3853C81.1459 57.6596 81.08 56.9669 80.948 56.3072C80.8161 55.6475 80.6182 55.0208 80.3543 54.427H59.1435C58.8909 55.0208 58.7012 55.6475 58.5745 56.3072C58.4485 56.9669 58.3855 57.6596 58.3855 58.3853V62.3437Z" fill="#4192B5"/>
</g>
</svg>
