<svg width="20" height="21" viewBox="0 0 20 21" fill="none" xmlns="http://www.w3.org/2000/svg">
<mask id="mask0_138_898" style="mask-type:alpha" maskUnits="userSpaceOnUse" x="0" y="0" width="20" height="21">
<rect y="0.799988" width="20" height="20" fill="#D9D9D9"/>
</mask>
<g mask="url(#mask0_138_898)">
<path d="M10.0058 18.8C8.90472 18.8 7.86806 18.5917 6.89583 18.175C5.92361 17.7583 5.07292 17.1854 4.34375 16.4562C3.61458 15.7271 3.04167 14.8767 2.625 13.905C2.20833 12.9333 2 11.8951 2 10.7904C2 9.68568 2.20833 8.65068 2.625 7.6854C3.04167 6.72013 3.61458 5.8729 4.34375 5.14374C5.07292 4.41457 5.92333 3.84165 6.895 3.42499C7.86667 3.00832 8.90486 2.79999 10.0096 2.79999C11.1143 2.79999 12.1493 3.00832 13.1146 3.42499C14.0799 3.84165 14.9271 4.41457 15.6562 5.14374C16.3854 5.8729 16.9583 6.72165 17.375 7.68999C17.7917 8.65846 18 9.69318 18 10.7942C18 11.8953 17.7917 12.9319 17.375 13.9042C16.9583 14.8764 16.3854 15.7271 15.6562 16.4562C14.9271 17.1854 14.0783 17.7583 13.11 18.175C12.1415 18.5917 11.1068 18.8 10.0058 18.8ZM10.75 17.2583C12.375 17.0639 13.7396 16.3575 14.8438 15.1392C15.9479 13.9208 16.5 12.4744 16.5 10.8C16.5 9.12554 15.9479 7.67915 14.8438 6.46082C13.7396 5.24249 12.375 4.5361 10.75 4.34165V17.2583Z" fill="#1C1B1F"/>
</g>
</svg>
