<svg width="62" height="62" viewBox="0 0 62 62" fill="none" xmlns="http://www.w3.org/2000/svg">
<g filter="url(#filter0_d_71_3186)">
<path d="M31 56C45.3594 56 57 44.3594 57 30C57 15.6406 45.3594 4 31 4C16.6406 4 5 15.6406 5 30C5 44.3594 16.6406 56 31 56Z" fill="white"/>
</g>
<mask id="mask0_71_3186" style="mask-type:alpha" maskUnits="userSpaceOnUse" x="18" y="17" width="25" height="25">
<rect width="24.2019" height="24.2019" transform="matrix(-4.37114e-08 -1 -1 4.37114e-08 43 42)" fill="#D9D9D9"/>
</mask>
<g mask="url(#mask0_71_3186)">
<path d="M20.4117 32.7397L22.9328 35.2607L30.8992 27.2943L38.8657 35.2607L41.3867 32.7397L30.8992 22.2522L20.4117 32.7397Z" fill="#4192B5"/>
</g>
<defs>
<filter id="filter0_d_71_3186" x="0.3" y="0.3" width="61.4" height="61.4" filterUnits="userSpaceOnUse" color-interpolation-filters="sRGB">
<feFlood flood-opacity="0" result="BackgroundImageFix"/>
<feColorMatrix in="SourceAlpha" type="matrix" values="0 0 0 0 0 0 0 0 0 0 0 0 0 0 0 0 0 0 127 0" result="hardAlpha"/>
<feOffset dy="1"/>
<feGaussianBlur stdDeviation="2.35"/>
<feComposite in2="hardAlpha" operator="out"/>
<feColorMatrix type="matrix" values="0 0 0 0 0 0 0 0 0 0 0 0 0 0 0 0 0 0 0.07 0"/>
<feBlend mode="normal" in2="BackgroundImageFix" result="effect1_dropShadow_71_3186"/>
<feBlend mode="normal" in="SourceGraphic" in2="effect1_dropShadow_71_3186" result="shape"/>
</filter>
</defs>
</svg>
