<svg width="48" height="48" viewBox="0 0 48 48" fill="none" xmlns="http://www.w3.org/2000/svg">
<mask id="mask0_360_181" style="mask-type:alpha" maskUnits="userSpaceOnUse" x="0" y="0" width="48" height="48">
<rect width="48" height="48" fill="#D9D9D9"/>
</mask>
<g mask="url(#mask0_360_181)">
<path d="M7 42C6.2 42 5.5 41.7 4.9 41.1C4.3 40.5 4 39.8 4 39V15C4 14.2 4.3 13.5 4.9 12.9C5.5 12.3 6.2 12 7 12H16V7C16 6.2 16.3 5.5 16.9 4.9C17.5 4.3 18.2 4 19 4H29C29.8 4 30.5 4.3 31.1 4.9C31.7 5.5 32 6.2 32 7V12H41C41.8 12 42.5 12.3 43.1 12.9C43.7 13.5 44 14.2 44 15V39C44 39.8 43.7 40.5 43.1 41.1C42.5 41.7 41.8 42 41 42H7ZM19 12H29V7H19V12ZM41 29.45H28.55V32.45H19.55V29.45H7V39H41V29.45ZM22.55 29.45H25.55V26.45H22.55V29.45ZM7 26.45H19.55V23.45H28.55V26.45H41V15H7V26.45Z" fill="#4192B5"/>
</g>
</svg>
