<svg width="48" height="48" viewBox="0 0 48 48" fill="none" xmlns="http://www.w3.org/2000/svg">
<mask id="mask0_360_849" style="mask-type:alpha" maskUnits="userSpaceOnUse" x="0" y="0" width="48" height="48">
<rect width="48" height="48" fill="#D9D9D9"/>
</mask>
<g mask="url(#mask0_360_849)">
<path d="M24 44C21.6 43.7333 19.2083 43.0417 16.825 41.925C14.4417 40.8083 12.3 39.2583 10.4 37.275C8.5 35.2917 6.95833 32.8417 5.775 29.925C4.59167 27.0083 4 23.617 4 19.751V17.85H5.9C7.66667 17.85 9.55 18.1917 11.55 18.875C13.55 19.5583 15.3167 20.4333 16.85 21.5C17.1167 18.5 17.9167 15.4083 19.25 12.225C20.5833 9.04165 22.1667 6.31665 24 4.04999C25.8333 6.31665 27.4167 9.04165 28.75 12.225C30.0833 15.4083 30.8833 18.5 31.15 21.5C32.6833 20.5 34.45 19.6417 36.45 18.925C38.45 18.2083 40.3333 17.85 42.1 17.85H44V19.751C44 23.617 43.4083 27.0083 42.225 29.925C41.0417 32.8417 39.5 35.2917 37.6 37.275C35.7 39.2583 33.5583 40.8083 31.175 41.925C28.7917 43.0417 26.4 43.7333 24 44ZM24.4 40.95C24.0333 34.75 22.2435 30.047 19.0305 26.841C15.8172 23.6347 11.8237 21.6543 7.05 20.9C7.48333 27.3333 9.35833 32.1333 12.675 35.3C15.9917 38.4667 19.9 40.35 24.4 40.95ZM23.95 28.7C24.4167 27.8333 25.0583 26.9 25.875 25.9C26.6917 24.9 27.4833 24.0667 28.25 23.4C28.4167 21.1333 28.0833 18.8333 27.25 16.5C26.4167 14.1667 25.3333 11.75 24 9.24999C22.6667 11.75 21.5833 14.1667 20.75 16.5C19.9167 18.8333 19.5833 21.1333 19.75 23.4C20.5167 24.0667 21.2917 24.9 22.075 25.9C22.8583 26.9 23.4833 27.8333 23.95 28.7ZM27.4 40.1C28.9667 39.5333 30.525 38.7833 32.075 37.85C33.625 36.9167 35.025 35.7 36.275 34.2C37.525 32.7 38.575 30.8583 39.425 28.675C40.275 26.4917 40.7833 23.9 40.95 20.9C37.4167 21.4667 34.3 22.725 31.6 24.675C28.9 26.625 26.9167 29.0333 25.65 31.9C26.05 33.1667 26.4 34.4417 26.7 35.725C27 37.0083 27.2333 38.4667 27.4 40.1Z" fill="#4192B5"/>
</g>
</svg>
