<svg width="48" height="48" viewBox="0 0 48 48" fill="none" xmlns="http://www.w3.org/2000/svg">
<mask id="mask0_360_44" style="mask-type:alpha" maskUnits="userSpaceOnUse" x="0" y="0" width="48" height="48">
<rect width="48" height="48" fill="#D9D9D9"/>
</mask>
<g mask="url(#mask0_360_44)">
<path d="M11 44C10.175 44 9.46883 43.7062 8.8815 43.1185C8.29383 42.5312 8 41.825 8 41V19.3C8 18.475 8.29383 17.7687 8.8815 17.181C9.46883 16.5937 10.175 16.3 11 16.3H14.5V11.5C14.5 8.87167 15.4268 6.63133 17.2805 4.779C19.1338 2.92633 21.3755 2 24.0055 2C26.6352 2 28.875 2.92633 30.725 4.779C32.575 6.63133 33.5 8.87167 33.5 11.5V16.3H37C37.825 16.3 38.5313 16.5937 39.119 17.181C39.7063 17.7687 40 18.475 40 19.3V41C40 41.825 39.7063 42.5312 39.119 43.1185C38.5313 43.7062 37.825 44 37 44H11ZM11 41H37V19.3H11V41ZM24.0085 34C25.0695 34 25.975 33.6328 26.725 32.8985C27.475 32.1642 27.85 31.2813 27.85 30.25C27.85 29.25 27.4722 28.3417 26.7165 27.525C25.9608 26.7083 25.0525 26.3 23.9915 26.3C22.9305 26.3 22.025 26.7083 21.275 27.525C20.525 28.3417 20.15 29.2583 20.15 30.275C20.15 31.2917 20.5278 32.1667 21.2835 32.9C22.0392 33.6333 22.9475 34 24.0085 34ZM17.5 16.3H30.5V11.5C30.5 9.69433 29.8687 8.15967 28.606 6.896C27.3433 5.632 25.81 5 24.006 5C22.202 5 20.6667 5.632 19.4 6.896C18.1333 8.15967 17.5 9.69433 17.5 11.5V16.3Z" fill="#4192B5"/>
</g>
</svg>
